<mxfile host="app.diagrams.net" agent="Mozilla/5.0 (Windows NT 10.0; Win64; x64) AppleWebKit/537.36 (KHTML, like Gecko) Chrome/135.0.0.0 Safari/537.36" version="26.2.12">
  <diagram name="Trang-1" id="kcuuilD3a1EaR51ely3n">
    <mxGraphModel dx="1871" dy="1811" grid="1" gridSize="10" guides="1" tooltips="1" connect="1" arrows="1" fold="1" page="1" pageScale="1" pageWidth="827" pageHeight="1169" math="0" shadow="0">
      <root>
        <mxCell id="0" />
        <mxCell id="1" parent="0" />
        <mxCell id="Q_YXP4lk02ADxKYNfTab-1" value="&lt;span style=&quot;font-weight: normal;&quot;&gt;Admin&lt;/span&gt;" style="swimlane;fontStyle=1;align=center;verticalAlign=top;childLayout=stackLayout;horizontal=1;startSize=26;horizontalStack=0;resizeParent=1;resizeParentMax=0;resizeLast=0;collapsible=1;marginBottom=0;whiteSpace=wrap;html=1;" parent="1" vertex="1">
          <mxGeometry x="-160" width="290" height="138" as="geometry" />
        </mxCell>
        <mxCell id="Q_YXP4lk02ADxKYNfTab-2" value="- id: int" style="text;strokeColor=none;fillColor=none;align=left;verticalAlign=top;spacingLeft=4;spacingRight=4;overflow=hidden;rotatable=0;points=[[0,0.5],[1,0.5]];portConstraint=eastwest;whiteSpace=wrap;html=1;" parent="Q_YXP4lk02ADxKYNfTab-1" vertex="1">
          <mxGeometry y="26" width="290" height="26" as="geometry" />
        </mxCell>
        <mxCell id="Q_YXP4lk02ADxKYNfTab-16" value="- username: String" style="text;strokeColor=none;fillColor=none;align=left;verticalAlign=top;spacingLeft=4;spacingRight=4;overflow=hidden;rotatable=0;points=[[0,0.5],[1,0.5]];portConstraint=eastwest;whiteSpace=wrap;html=1;" parent="Q_YXP4lk02ADxKYNfTab-1" vertex="1">
          <mxGeometry y="52" width="290" height="26" as="geometry" />
        </mxCell>
        <mxCell id="vNxBG4lUaGmJ6MviOZO6-7" value="- password: String" style="text;strokeColor=none;fillColor=none;align=left;verticalAlign=top;spacingLeft=4;spacingRight=4;overflow=hidden;rotatable=0;points=[[0,0.5],[1,0.5]];portConstraint=eastwest;whiteSpace=wrap;html=1;" parent="Q_YXP4lk02ADxKYNfTab-1" vertex="1">
          <mxGeometry y="78" width="290" height="26" as="geometry" />
        </mxCell>
        <mxCell id="vNxBG4lUaGmJ6MviOZO6-8" value="" style="line;strokeWidth=1;fillColor=none;align=left;verticalAlign=middle;spacingTop=-1;spacingLeft=3;spacingRight=3;rotatable=0;labelPosition=right;points=[];portConstraint=eastwest;strokeColor=inherit;" parent="Q_YXP4lk02ADxKYNfTab-1" vertex="1">
          <mxGeometry y="104" width="290" height="8" as="geometry" />
        </mxCell>
        <mxCell id="Q_YXP4lk02ADxKYNfTab-5" value="+ logout(): void" style="text;strokeColor=none;fillColor=none;align=left;verticalAlign=top;spacingLeft=4;spacingRight=4;overflow=hidden;rotatable=0;points=[[0,0.5],[1,0.5]];portConstraint=eastwest;whiteSpace=wrap;html=1;" parent="Q_YXP4lk02ADxKYNfTab-1" vertex="1">
          <mxGeometry y="112" width="290" height="26" as="geometry" />
        </mxCell>
        <mxCell id="Q_YXP4lk02ADxKYNfTab-8" value="&lt;span style=&quot;font-weight: normal;&quot;&gt;Student&lt;/span&gt;" style="swimlane;fontStyle=1;align=center;verticalAlign=top;childLayout=stackLayout;horizontal=1;startSize=26;horizontalStack=0;resizeParent=1;resizeParentMax=0;resizeLast=0;collapsible=1;marginBottom=0;whiteSpace=wrap;html=1;" parent="1" vertex="1">
          <mxGeometry x="190" y="240" width="290" height="372" as="geometry" />
        </mxCell>
        <mxCell id="vNxBG4lUaGmJ6MviOZO6-6" value="- id: String" style="text;strokeColor=none;fillColor=none;align=left;verticalAlign=top;spacingLeft=4;spacingRight=4;overflow=hidden;rotatable=0;points=[[0,0.5],[1,0.5]];portConstraint=eastwest;whiteSpace=wrap;html=1;" parent="Q_YXP4lk02ADxKYNfTab-8" vertex="1">
          <mxGeometry y="26" width="290" height="26" as="geometry" />
        </mxCell>
        <mxCell id="Q_YXP4lk02ADxKYNfTab-9" value="- username: String" style="text;strokeColor=none;fillColor=none;align=left;verticalAlign=top;spacingLeft=4;spacingRight=4;overflow=hidden;rotatable=0;points=[[0,0.5],[1,0.5]];portConstraint=eastwest;whiteSpace=wrap;html=1;" parent="Q_YXP4lk02ADxKYNfTab-8" vertex="1">
          <mxGeometry y="52" width="290" height="26" as="geometry" />
        </mxCell>
        <mxCell id="Q_YXP4lk02ADxKYNfTab-10" value="- name: String" style="text;strokeColor=none;fillColor=none;align=left;verticalAlign=top;spacingLeft=4;spacingRight=4;overflow=hidden;rotatable=0;points=[[0,0.5],[1,0.5]];portConstraint=eastwest;whiteSpace=wrap;html=1;" parent="Q_YXP4lk02ADxKYNfTab-8" vertex="1">
          <mxGeometry y="78" width="290" height="26" as="geometry" />
        </mxCell>
        <mxCell id="Q_YXP4lk02ADxKYNfTab-11" value="- password: String" style="text;strokeColor=none;fillColor=none;align=left;verticalAlign=top;spacingLeft=4;spacingRight=4;overflow=hidden;rotatable=0;points=[[0,0.5],[1,0.5]];portConstraint=eastwest;whiteSpace=wrap;html=1;" parent="Q_YXP4lk02ADxKYNfTab-8" vertex="1">
          <mxGeometry y="104" width="290" height="26" as="geometry" />
        </mxCell>
        <mxCell id="Q_YXP4lk02ADxKYNfTab-17" value="- email: String" style="text;strokeColor=none;fillColor=none;align=left;verticalAlign=top;spacingLeft=4;spacingRight=4;overflow=hidden;rotatable=0;points=[[0,0.5],[1,0.5]];portConstraint=eastwest;whiteSpace=wrap;html=1;" parent="Q_YXP4lk02ADxKYNfTab-8" vertex="1">
          <mxGeometry y="130" width="290" height="26" as="geometry" />
        </mxCell>
        <mxCell id="Q_YXP4lk02ADxKYNfTab-18" value="- dob: LocalDate" style="text;strokeColor=none;fillColor=none;align=left;verticalAlign=top;spacingLeft=4;spacingRight=4;overflow=hidden;rotatable=0;points=[[0,0.5],[1,0.5]];portConstraint=eastwest;whiteSpace=wrap;html=1;" parent="Q_YXP4lk02ADxKYNfTab-8" vertex="1">
          <mxGeometry y="156" width="290" height="26" as="geometry" />
        </mxCell>
        <mxCell id="Q_YXP4lk02ADxKYNfTab-19" value="- sex: boolean" style="text;strokeColor=none;fillColor=none;align=left;verticalAlign=top;spacingLeft=4;spacingRight=4;overflow=hidden;rotatable=0;points=[[0,0.5],[1,0.5]];portConstraint=eastwest;whiteSpace=wrap;html=1;" parent="Q_YXP4lk02ADxKYNfTab-8" vertex="1">
          <mxGeometry y="182" width="290" height="26" as="geometry" />
        </mxCell>
        <mxCell id="Q_YXP4lk02ADxKYNfTab-20" value="- phone: String" style="text;strokeColor=none;fillColor=none;align=left;verticalAlign=top;spacingLeft=4;spacingRight=4;overflow=hidden;rotatable=0;points=[[0,0.5],[1,0.5]];portConstraint=eastwest;whiteSpace=wrap;html=1;" parent="Q_YXP4lk02ADxKYNfTab-8" vertex="1">
          <mxGeometry y="208" width="290" height="26" as="geometry" />
        </mxCell>
        <mxCell id="Q_YXP4lk02ADxKYNfTab-21" value="- status: StudentStatus" style="text;strokeColor=none;fillColor=none;align=left;verticalAlign=top;spacingLeft=4;spacingRight=4;overflow=hidden;rotatable=0;points=[[0,0.5],[1,0.5]];portConstraint=eastwest;whiteSpace=wrap;html=1;" parent="Q_YXP4lk02ADxKYNfTab-8" vertex="1">
          <mxGeometry y="234" width="290" height="26" as="geometry" />
        </mxCell>
        <mxCell id="Q_YXP4lk02ADxKYNfTab-23" value="- createdAt: LocalDate" style="text;strokeColor=none;fillColor=none;align=left;verticalAlign=top;spacingLeft=4;spacingRight=4;overflow=hidden;rotatable=0;points=[[0,0.5],[1,0.5]];portConstraint=eastwest;whiteSpace=wrap;html=1;" parent="Q_YXP4lk02ADxKYNfTab-8" vertex="1">
          <mxGeometry y="260" width="290" height="26" as="geometry" />
        </mxCell>
        <mxCell id="Q_YXP4lk02ADxKYNfTab-12" value="" style="line;strokeWidth=1;fillColor=none;align=left;verticalAlign=middle;spacingTop=-1;spacingLeft=3;spacingRight=3;rotatable=0;labelPosition=right;points=[];portConstraint=eastwest;strokeColor=inherit;" parent="Q_YXP4lk02ADxKYNfTab-8" vertex="1">
          <mxGeometry y="286" width="290" height="8" as="geometry" />
        </mxCell>
        <mxCell id="LlLVabDBCQFJk6Uj2uY--27" value="+ inputData(Scanner scanner): void" style="text;strokeColor=none;fillColor=none;align=left;verticalAlign=top;spacingLeft=4;spacingRight=4;overflow=hidden;rotatable=0;points=[[0,0.5],[1,0.5]];portConstraint=eastwest;whiteSpace=wrap;html=1;" parent="Q_YXP4lk02ADxKYNfTab-8" vertex="1">
          <mxGeometry y="294" width="290" height="26" as="geometry" />
        </mxCell>
        <mxCell id="vNxBG4lUaGmJ6MviOZO6-9" value="+ changePassword(): void" style="text;strokeColor=none;fillColor=none;align=left;verticalAlign=top;spacingLeft=4;spacingRight=4;overflow=hidden;rotatable=0;points=[[0,0.5],[1,0.5]];portConstraint=eastwest;whiteSpace=wrap;html=1;" parent="Q_YXP4lk02ADxKYNfTab-8" vertex="1">
          <mxGeometry y="320" width="290" height="26" as="geometry" />
        </mxCell>
        <mxCell id="zlpquRdz48AsANumm2sr-21" value="+ logout(): void" style="text;strokeColor=none;fillColor=none;align=left;verticalAlign=top;spacingLeft=4;spacingRight=4;overflow=hidden;rotatable=0;points=[[0,0.5],[1,0.5]];portConstraint=eastwest;whiteSpace=wrap;html=1;" parent="Q_YXP4lk02ADxKYNfTab-8" vertex="1">
          <mxGeometry y="346" width="290" height="26" as="geometry" />
        </mxCell>
        <mxCell id="Q_YXP4lk02ADxKYNfTab-22" value="&lt;p style=&quot;margin: 4px 0px 0px; text-align: center;&quot;&gt;&lt;i style=&quot;&quot;&gt;&amp;lt;&amp;lt;&lt;/i&gt;&lt;i&gt;enumeration&lt;/i&gt;&lt;i style=&quot;&quot;&gt;&amp;gt;&amp;gt;&lt;/i&gt;&lt;/p&gt;&lt;p style=&quot;margin: 4px 0px 0px; text-align: center;&quot;&gt;StudentStatus&lt;/p&gt;&lt;hr size=&quot;1&quot; style=&quot;border-style:solid;&quot;&gt;&lt;p style=&quot;margin:0px;margin-left:8px;&quot;&gt;ACTIVE&lt;/p&gt;&lt;p style=&quot;margin:0px;margin-left:8px;&quot;&gt;INACTIVE&lt;/p&gt;&lt;p style=&quot;margin:0px;margin-left:8px;&quot;&gt;BLOCKED&lt;/p&gt;" style="verticalAlign=top;align=left;overflow=fill;html=1;whiteSpace=wrap;" parent="1" vertex="1">
          <mxGeometry x="-10" y="190" width="160" height="98" as="geometry" />
        </mxCell>
        <mxCell id="Q_YXP4lk02ADxKYNfTab-24" value="&lt;span style=&quot;font-weight: normal;&quot;&gt;User&lt;/span&gt;" style="swimlane;fontStyle=1;align=center;verticalAlign=top;childLayout=stackLayout;horizontal=1;startSize=26;horizontalStack=0;resizeParent=1;resizeParentMax=0;resizeLast=0;collapsible=1;marginBottom=0;whiteSpace=wrap;html=1;" parent="1" vertex="1">
          <mxGeometry x="200" y="-16" width="290" height="164" as="geometry" />
        </mxCell>
        <mxCell id="Q_YXP4lk02ADxKYNfTab-25" value="- id: int" style="text;strokeColor=none;fillColor=none;align=left;verticalAlign=top;spacingLeft=4;spacingRight=4;overflow=hidden;rotatable=0;points=[[0,0.5],[1,0.5]];portConstraint=eastwest;whiteSpace=wrap;html=1;" parent="Q_YXP4lk02ADxKYNfTab-24" vertex="1">
          <mxGeometry y="26" width="290" height="26" as="geometry" />
        </mxCell>
        <mxCell id="Q_YXP4lk02ADxKYNfTab-28" value="- username: String" style="text;strokeColor=none;fillColor=none;align=left;verticalAlign=top;spacingLeft=4;spacingRight=4;overflow=hidden;rotatable=0;points=[[0,0.5],[1,0.5]];portConstraint=eastwest;whiteSpace=wrap;html=1;" parent="Q_YXP4lk02ADxKYNfTab-24" vertex="1">
          <mxGeometry y="52" width="290" height="26" as="geometry" />
        </mxCell>
        <mxCell id="Q_YXP4lk02ADxKYNfTab-29" value="- password: String" style="text;strokeColor=none;fillColor=none;align=left;verticalAlign=top;spacingLeft=4;spacingRight=4;overflow=hidden;rotatable=0;points=[[0,0.5],[1,0.5]];portConstraint=eastwest;whiteSpace=wrap;html=1;" parent="Q_YXP4lk02ADxKYNfTab-24" vertex="1">
          <mxGeometry y="78" width="290" height="26" as="geometry" />
        </mxCell>
        <mxCell id="Q_YXP4lk02ADxKYNfTab-26" value="" style="line;strokeWidth=1;fillColor=none;align=left;verticalAlign=middle;spacingTop=-1;spacingLeft=3;spacingRight=3;rotatable=0;labelPosition=right;points=[];portConstraint=eastwest;strokeColor=inherit;" parent="Q_YXP4lk02ADxKYNfTab-24" vertex="1">
          <mxGeometry y="104" width="290" height="8" as="geometry" />
        </mxCell>
        <mxCell id="LlLVabDBCQFJk6Uj2uY--18" value="+ logout(): void" style="text;strokeColor=none;fillColor=none;align=left;verticalAlign=top;spacingLeft=4;spacingRight=4;overflow=hidden;rotatable=0;points=[[0,0.5],[1,0.5]];portConstraint=eastwest;whiteSpace=wrap;html=1;" parent="Q_YXP4lk02ADxKYNfTab-24" vertex="1">
          <mxGeometry y="112" width="290" height="26" as="geometry" />
        </mxCell>
        <mxCell id="Q_YXP4lk02ADxKYNfTab-30" value="+ inputData(Scanner scanner): void" style="text;strokeColor=none;fillColor=none;align=left;verticalAlign=top;spacingLeft=4;spacingRight=4;overflow=hidden;rotatable=0;points=[[0,0.5],[1,0.5]];portConstraint=eastwest;whiteSpace=wrap;html=1;" parent="Q_YXP4lk02ADxKYNfTab-24" vertex="1">
          <mxGeometry y="138" width="290" height="26" as="geometry" />
        </mxCell>
        <mxCell id="MJI2ajQQupjb3d7geVpr-5" value="&lt;span style=&quot;font-weight: 400;&quot;&gt;Course&lt;/span&gt;" style="swimlane;fontStyle=1;align=center;verticalAlign=top;childLayout=stackLayout;horizontal=1;startSize=26;horizontalStack=0;resizeParent=1;resizeParentMax=0;resizeLast=0;collapsible=1;marginBottom=0;whiteSpace=wrap;html=1;" parent="1" vertex="1">
          <mxGeometry x="555" y="240" width="240" height="185" as="geometry" />
        </mxCell>
        <mxCell id="MJI2ajQQupjb3d7geVpr-6" value="- id: String" style="text;strokeColor=none;fillColor=none;align=left;verticalAlign=top;spacingLeft=4;spacingRight=4;overflow=hidden;rotatable=0;points=[[0,0.5],[1,0.5]];portConstraint=eastwest;whiteSpace=wrap;html=1;" parent="MJI2ajQQupjb3d7geVpr-5" vertex="1">
          <mxGeometry y="26" width="240" height="26" as="geometry" />
        </mxCell>
        <mxCell id="MJI2ajQQupjb3d7geVpr-10" value="- name: String" style="text;strokeColor=none;fillColor=none;align=left;verticalAlign=top;spacingLeft=4;spacingRight=4;overflow=hidden;rotatable=0;points=[[0,0.5],[1,0.5]];portConstraint=eastwest;whiteSpace=wrap;html=1;" parent="MJI2ajQQupjb3d7geVpr-5" vertex="1">
          <mxGeometry y="52" width="240" height="26" as="geometry" />
        </mxCell>
        <mxCell id="MJI2ajQQupjb3d7geVpr-11" value="- duration: int" style="text;strokeColor=none;fillColor=none;align=left;verticalAlign=top;spacingLeft=4;spacingRight=4;overflow=hidden;rotatable=0;points=[[0,0.5],[1,0.5]];portConstraint=eastwest;whiteSpace=wrap;html=1;" parent="MJI2ajQQupjb3d7geVpr-5" vertex="1">
          <mxGeometry y="78" width="240" height="26" as="geometry" />
        </mxCell>
        <mxCell id="MJI2ajQQupjb3d7geVpr-12" value="- instuctor: String" style="text;strokeColor=none;fillColor=none;align=left;verticalAlign=top;spacingLeft=4;spacingRight=4;overflow=hidden;rotatable=0;points=[[0,0.5],[1,0.5]];portConstraint=eastwest;whiteSpace=wrap;html=1;" parent="MJI2ajQQupjb3d7geVpr-5" vertex="1">
          <mxGeometry y="104" width="240" height="26" as="geometry" />
        </mxCell>
        <mxCell id="MJI2ajQQupjb3d7geVpr-13" value="- created_at: LocalTime" style="text;strokeColor=none;fillColor=none;align=left;verticalAlign=top;spacingLeft=4;spacingRight=4;overflow=hidden;rotatable=0;points=[[0,0.5],[1,0.5]];portConstraint=eastwest;whiteSpace=wrap;html=1;" parent="MJI2ajQQupjb3d7geVpr-5" vertex="1">
          <mxGeometry y="130" width="240" height="26" as="geometry" />
        </mxCell>
        <mxCell id="LlLVabDBCQFJk6Uj2uY--29" value="" style="line;strokeWidth=1;fillColor=none;align=left;verticalAlign=middle;spacingTop=-1;spacingLeft=3;spacingRight=3;rotatable=0;labelPosition=right;points=[];portConstraint=eastwest;strokeColor=inherit;" parent="MJI2ajQQupjb3d7geVpr-5" vertex="1">
          <mxGeometry y="156" width="240" height="3" as="geometry" />
        </mxCell>
        <mxCell id="LlLVabDBCQFJk6Uj2uY--28" value="+ inputData(Scanner scanner): void" style="text;strokeColor=none;fillColor=none;align=left;verticalAlign=top;spacingLeft=4;spacingRight=4;overflow=hidden;rotatable=0;points=[[0,0.5],[1,0.5]];portConstraint=eastwest;whiteSpace=wrap;html=1;" parent="MJI2ajQQupjb3d7geVpr-5" vertex="1">
          <mxGeometry y="159" width="240" height="26" as="geometry" />
        </mxCell>
        <mxCell id="MJI2ajQQupjb3d7geVpr-14" value="Enrollment" style="swimlane;fontStyle=0;childLayout=stackLayout;horizontal=1;startSize=26;fillColor=none;horizontalStack=0;resizeParent=1;resizeParentMax=0;resizeLast=0;collapsible=1;marginBottom=0;whiteSpace=wrap;html=1;" parent="1" vertex="1">
          <mxGeometry x="855" y="370" width="180" height="130" as="geometry" />
        </mxCell>
        <mxCell id="MJI2ajQQupjb3d7geVpr-15" value="- id: int" style="text;strokeColor=none;fillColor=none;align=left;verticalAlign=top;spacingLeft=4;spacingRight=4;overflow=hidden;rotatable=0;points=[[0,0.5],[1,0.5]];portConstraint=eastwest;whiteSpace=wrap;html=1;" parent="MJI2ajQQupjb3d7geVpr-14" vertex="1">
          <mxGeometry y="26" width="180" height="26" as="geometry" />
        </mxCell>
        <mxCell id="MJI2ajQQupjb3d7geVpr-16" value="- student_id: String" style="text;strokeColor=none;fillColor=none;align=left;verticalAlign=top;spacingLeft=4;spacingRight=4;overflow=hidden;rotatable=0;points=[[0,0.5],[1,0.5]];portConstraint=eastwest;whiteSpace=wrap;html=1;" parent="MJI2ajQQupjb3d7geVpr-14" vertex="1">
          <mxGeometry y="52" width="180" height="26" as="geometry" />
        </mxCell>
        <mxCell id="MJI2ajQQupjb3d7geVpr-17" value="- course_id: int" style="text;strokeColor=none;fillColor=none;align=left;verticalAlign=top;spacingLeft=4;spacingRight=4;overflow=hidden;rotatable=0;points=[[0,0.5],[1,0.5]];portConstraint=eastwest;whiteSpace=wrap;html=1;" parent="MJI2ajQQupjb3d7geVpr-14" vertex="1">
          <mxGeometry y="78" width="180" height="26" as="geometry" />
        </mxCell>
        <mxCell id="MJI2ajQQupjb3d7geVpr-18" value="- registered_at: LocalTime" style="text;strokeColor=none;fillColor=none;align=left;verticalAlign=top;spacingLeft=4;spacingRight=4;overflow=hidden;rotatable=0;points=[[0,0.5],[1,0.5]];portConstraint=eastwest;whiteSpace=wrap;html=1;" parent="MJI2ajQQupjb3d7geVpr-14" vertex="1">
          <mxGeometry y="104" width="180" height="26" as="geometry" />
        </mxCell>
        <mxCell id="LlLVabDBCQFJk6Uj2uY--1" value="&lt;b&gt;&amp;lt;&amp;lt;interface&amp;gt;&amp;gt;&lt;/b&gt;&lt;div&gt;&lt;b&gt;BaseDAO&amp;lt;T&amp;gt;&lt;/b&gt;&lt;/div&gt;" style="swimlane;fontStyle=0;childLayout=stackLayout;horizontal=1;startSize=30;fillColor=none;horizontalStack=0;resizeParent=1;resizeParentMax=0;resizeLast=0;collapsible=1;marginBottom=0;whiteSpace=wrap;html=1;" parent="1" vertex="1">
          <mxGeometry x="550" y="470" width="250" height="160" as="geometry" />
        </mxCell>
        <mxCell id="LlLVabDBCQFJk6Uj2uY--2" value="+ findAll(): List&amp;lt;T&amp;gt;" style="text;strokeColor=none;fillColor=none;align=left;verticalAlign=top;spacingLeft=4;spacingRight=4;overflow=hidden;rotatable=0;points=[[0,0.5],[1,0.5]];portConstraint=eastwest;whiteSpace=wrap;html=1;" parent="LlLVabDBCQFJk6Uj2uY--1" vertex="1">
          <mxGeometry y="30" width="250" height="26" as="geometry" />
        </mxCell>
        <mxCell id="LlLVabDBCQFJk6Uj2uY--3" value="+ save(T t): boolean" style="text;strokeColor=none;fillColor=none;align=left;verticalAlign=top;spacingLeft=4;spacingRight=4;overflow=hidden;rotatable=0;points=[[0,0.5],[1,0.5]];portConstraint=eastwest;whiteSpace=wrap;html=1;" parent="LlLVabDBCQFJk6Uj2uY--1" vertex="1">
          <mxGeometry y="56" width="250" height="26" as="geometry" />
        </mxCell>
        <mxCell id="LlLVabDBCQFJk6Uj2uY--4" value="+ update(T t): boolean" style="text;strokeColor=none;fillColor=none;align=left;verticalAlign=top;spacingLeft=4;spacingRight=4;overflow=hidden;rotatable=0;points=[[0,0.5],[1,0.5]];portConstraint=eastwest;whiteSpace=wrap;html=1;" parent="LlLVabDBCQFJk6Uj2uY--1" vertex="1">
          <mxGeometry y="82" width="250" height="26" as="geometry" />
        </mxCell>
        <mxCell id="LlLVabDBCQFJk6Uj2uY--5" value="+ delete(T t):boolean" style="text;strokeColor=none;fillColor=none;align=left;verticalAlign=top;spacingLeft=4;spacingRight=4;overflow=hidden;rotatable=0;points=[[0,0.5],[1,0.5]];portConstraint=eastwest;whiteSpace=wrap;html=1;" parent="LlLVabDBCQFJk6Uj2uY--1" vertex="1">
          <mxGeometry y="108" width="250" height="26" as="geometry" />
        </mxCell>
        <mxCell id="LlLVabDBCQFJk6Uj2uY--19" value="+ findPage(int page, int size): Pagination&amp;lt;T&amp;gt;" style="text;strokeColor=none;fillColor=none;align=left;verticalAlign=top;spacingLeft=4;spacingRight=4;overflow=hidden;rotatable=0;points=[[0,0.5],[1,0.5]];portConstraint=eastwest;whiteSpace=wrap;html=1;" parent="LlLVabDBCQFJk6Uj2uY--1" vertex="1">
          <mxGeometry y="134" width="250" height="26" as="geometry" />
        </mxCell>
        <mxCell id="LlLVabDBCQFJk6Uj2uY--6" value="&lt;b style=&quot;&quot;&gt;&amp;lt;&amp;lt;interface&amp;gt;&amp;gt;&lt;/b&gt;&lt;div&gt;&lt;b style=&quot;&quot;&gt;inputable&lt;/b&gt;&lt;/div&gt;" style="swimlane;fontStyle=0;childLayout=stackLayout;horizontal=1;startSize=36;fillColor=none;horizontalStack=0;resizeParent=1;resizeParentMax=0;resizeLast=0;collapsible=1;marginBottom=0;whiteSpace=wrap;html=1;" parent="1" vertex="1">
          <mxGeometry x="510" y="140" width="200" height="62" as="geometry" />
        </mxCell>
        <mxCell id="LlLVabDBCQFJk6Uj2uY--7" value="+ inputData(Scanner scanner): void" style="text;strokeColor=none;fillColor=none;align=left;verticalAlign=top;spacingLeft=4;spacingRight=4;overflow=hidden;rotatable=0;points=[[0,0.5],[1,0.5]];portConstraint=eastwest;whiteSpace=wrap;html=1;" parent="LlLVabDBCQFJk6Uj2uY--6" vertex="1">
          <mxGeometry y="36" width="200" height="26" as="geometry" />
        </mxCell>
        <mxCell id="LlLVabDBCQFJk6Uj2uY--11" value="" style="endArrow=open;endFill=1;endSize=12;html=1;rounded=0;" parent="1" source="Q_YXP4lk02ADxKYNfTab-8" target="Q_YXP4lk02ADxKYNfTab-22" edge="1">
          <mxGeometry width="160" relative="1" as="geometry">
            <mxPoint x="510" y="100" as="sourcePoint" />
            <mxPoint x="670" y="100" as="targetPoint" />
          </mxGeometry>
        </mxCell>
        <mxCell id="LlLVabDBCQFJk6Uj2uY--12" value="Extends" style="endArrow=block;endSize=16;endFill=0;html=1;rounded=0;" parent="1" source="Q_YXP4lk02ADxKYNfTab-1" target="Q_YXP4lk02ADxKYNfTab-24" edge="1">
          <mxGeometry width="160" relative="1" as="geometry">
            <mxPoint x="210" y="220" as="sourcePoint" />
            <mxPoint x="370" y="220" as="targetPoint" />
          </mxGeometry>
        </mxCell>
        <mxCell id="LlLVabDBCQFJk6Uj2uY--13" value="Extends" style="endArrow=block;endSize=16;endFill=0;html=1;rounded=0;" parent="1" source="Q_YXP4lk02ADxKYNfTab-8" target="Q_YXP4lk02ADxKYNfTab-24" edge="1">
          <mxGeometry width="160" relative="1" as="geometry">
            <mxPoint x="310" y="240" as="sourcePoint" />
            <mxPoint x="470" y="240" as="targetPoint" />
          </mxGeometry>
        </mxCell>
        <mxCell id="LlLVabDBCQFJk6Uj2uY--16" value="" style="endArrow=open;endFill=1;endSize=12;html=1;rounded=0;" parent="1" source="MJI2ajQQupjb3d7geVpr-5" target="LlLVabDBCQFJk6Uj2uY--6" edge="1">
          <mxGeometry width="160" relative="1" as="geometry">
            <mxPoint x="720" y="140" as="sourcePoint" />
            <mxPoint x="880" y="140" as="targetPoint" />
          </mxGeometry>
        </mxCell>
        <mxCell id="LlLVabDBCQFJk6Uj2uY--17" value="" style="endArrow=open;endFill=1;endSize=12;html=1;rounded=0;" parent="1" source="Q_YXP4lk02ADxKYNfTab-8" target="LlLVabDBCQFJk6Uj2uY--6" edge="1">
          <mxGeometry width="160" relative="1" as="geometry">
            <mxPoint x="520" y="60" as="sourcePoint" />
            <mxPoint x="680" y="60" as="targetPoint" />
          </mxGeometry>
        </mxCell>
        <mxCell id="LlLVabDBCQFJk6Uj2uY--20" value="Pagination&amp;lt;T&amp;gt;" style="swimlane;fontStyle=0;childLayout=stackLayout;horizontal=1;startSize=26;fillColor=none;horizontalStack=0;resizeParent=1;resizeParentMax=0;resizeLast=0;collapsible=1;marginBottom=0;whiteSpace=wrap;html=1;" parent="1" vertex="1">
          <mxGeometry x="855" y="520" width="140" height="130" as="geometry" />
        </mxCell>
        <mxCell id="LlLVabDBCQFJk6Uj2uY--21" value="- items: List&amp;lt;T&amp;gt;" style="text;strokeColor=none;fillColor=none;align=left;verticalAlign=top;spacingLeft=4;spacingRight=4;overflow=hidden;rotatable=0;points=[[0,0.5],[1,0.5]];portConstraint=eastwest;whiteSpace=wrap;html=1;" parent="LlLVabDBCQFJk6Uj2uY--20" vertex="1">
          <mxGeometry y="26" width="140" height="26" as="geometry" />
        </mxCell>
        <mxCell id="LlLVabDBCQFJk6Uj2uY--22" value="- currentPage: int" style="text;strokeColor=none;fillColor=none;align=left;verticalAlign=top;spacingLeft=4;spacingRight=4;overflow=hidden;rotatable=0;points=[[0,0.5],[1,0.5]];portConstraint=eastwest;whiteSpace=wrap;html=1;" parent="LlLVabDBCQFJk6Uj2uY--20" vertex="1">
          <mxGeometry y="52" width="140" height="26" as="geometry" />
        </mxCell>
        <mxCell id="LlLVabDBCQFJk6Uj2uY--25" value="- totalPages: int" style="text;strokeColor=none;fillColor=none;align=left;verticalAlign=top;spacingLeft=4;spacingRight=4;overflow=hidden;rotatable=0;points=[[0,0.5],[1,0.5]];portConstraint=eastwest;whiteSpace=wrap;html=1;" parent="LlLVabDBCQFJk6Uj2uY--20" vertex="1">
          <mxGeometry y="78" width="140" height="26" as="geometry" />
        </mxCell>
        <mxCell id="LlLVabDBCQFJk6Uj2uY--23" value="- totalItem: int" style="text;strokeColor=none;fillColor=none;align=left;verticalAlign=top;spacingLeft=4;spacingRight=4;overflow=hidden;rotatable=0;points=[[0,0.5],[1,0.5]];portConstraint=eastwest;whiteSpace=wrap;html=1;" parent="LlLVabDBCQFJk6Uj2uY--20" vertex="1">
          <mxGeometry y="104" width="140" height="26" as="geometry" />
        </mxCell>
        <mxCell id="LlLVabDBCQFJk6Uj2uY--26" value="" style="endArrow=open;endFill=1;endSize=12;html=1;rounded=0;" parent="1" source="LlLVabDBCQFJk6Uj2uY--1" target="LlLVabDBCQFJk6Uj2uY--20" edge="1">
          <mxGeometry width="160" relative="1" as="geometry">
            <mxPoint x="80" y="730" as="sourcePoint" />
            <mxPoint x="240" y="730" as="targetPoint" />
          </mxGeometry>
        </mxCell>
        <mxCell id="zlpquRdz48AsANumm2sr-16" value="&lt;div&gt;&lt;b&gt;&amp;lt;&amp;lt;interface&amp;gt;&amp;gt;&lt;/b&gt;&lt;/div&gt;&lt;b&gt;AuthDAO&lt;/b&gt;" style="swimlane;fontStyle=0;childLayout=stackLayout;horizontal=1;startSize=40;fillColor=none;horizontalStack=0;resizeParent=1;resizeParentMax=0;resizeLast=0;collapsible=1;marginBottom=0;whiteSpace=wrap;html=1;" parent="1" vertex="1">
          <mxGeometry x="95" y="-190" width="500" height="118" as="geometry" />
        </mxCell>
        <mxCell id="zlpquRdz48AsANumm2sr-17" value="+ loginAsAdmin(String username, String password): boolean" style="text;strokeColor=none;fillColor=none;align=left;verticalAlign=top;spacingLeft=4;spacingRight=4;overflow=hidden;rotatable=0;points=[[0,0.5],[1,0.5]];portConstraint=eastwest;whiteSpace=wrap;html=1;" parent="zlpquRdz48AsANumm2sr-16" vertex="1">
          <mxGeometry y="40" width="500" height="26" as="geometry" />
        </mxCell>
        <mxCell id="zlpquRdz48AsANumm2sr-46" value="+ loginAsStudent(String username, String password): boolean" style="text;strokeColor=none;fillColor=none;align=left;verticalAlign=top;spacingLeft=4;spacingRight=4;overflow=hidden;rotatable=0;points=[[0,0.5],[1,0.5]];portConstraint=eastwest;whiteSpace=wrap;html=1;" parent="zlpquRdz48AsANumm2sr-16" vertex="1">
          <mxGeometry y="66" width="500" height="26" as="geometry" />
        </mxCell>
        <mxCell id="zlpquRdz48AsANumm2sr-18" value="+ changePassword(String username, String oldPassword String newPassword): boolean" style="text;strokeColor=none;fillColor=none;align=left;verticalAlign=top;spacingLeft=4;spacingRight=4;overflow=hidden;rotatable=0;points=[[0,0.5],[1,0.5]];portConstraint=eastwest;whiteSpace=wrap;html=1;" parent="zlpquRdz48AsANumm2sr-16" vertex="1">
          <mxGeometry y="92" width="500" height="26" as="geometry" />
        </mxCell>
        <mxCell id="zlpquRdz48AsANumm2sr-22" value="&lt;div&gt;&lt;span style=&quot;background-color: transparent; color: light-dark(rgb(0, 0, 0), rgb(255, 255, 255));&quot;&gt;AuthDAOImp&lt;/span&gt;&lt;/div&gt;" style="swimlane;fontStyle=0;childLayout=stackLayout;horizontal=1;startSize=30;fillColor=none;horizontalStack=0;resizeParent=1;resizeParentMax=0;resizeLast=0;collapsible=1;marginBottom=0;whiteSpace=wrap;html=1;" parent="1" vertex="1">
          <mxGeometry x="95" y="-360" width="490" height="108" as="geometry" />
        </mxCell>
        <mxCell id="zlpquRdz48AsANumm2sr-23" value="+ loginAsAdmin(String username, String password): boolean" style="text;strokeColor=none;fillColor=none;align=left;verticalAlign=top;spacingLeft=4;spacingRight=4;overflow=hidden;rotatable=0;points=[[0,0.5],[1,0.5]];portConstraint=eastwest;whiteSpace=wrap;html=1;" parent="zlpquRdz48AsANumm2sr-22" vertex="1">
          <mxGeometry y="30" width="490" height="26" as="geometry" />
        </mxCell>
        <mxCell id="zlpquRdz48AsANumm2sr-24" value="+ loginAsStudent(String username, String password): boolean" style="text;strokeColor=none;fillColor=none;align=left;verticalAlign=top;spacingLeft=4;spacingRight=4;overflow=hidden;rotatable=0;points=[[0,0.5],[1,0.5]];portConstraint=eastwest;whiteSpace=wrap;html=1;" parent="zlpquRdz48AsANumm2sr-22" vertex="1">
          <mxGeometry y="56" width="490" height="26" as="geometry" />
        </mxCell>
        <mxCell id="zlpquRdz48AsANumm2sr-47" value="+ changePassword(String username, String oldPassword String newPassword): boolean" style="text;strokeColor=none;fillColor=none;align=left;verticalAlign=top;spacingLeft=4;spacingRight=4;overflow=hidden;rotatable=0;points=[[0,0.5],[1,0.5]];portConstraint=eastwest;whiteSpace=wrap;html=1;" parent="zlpquRdz48AsANumm2sr-22" vertex="1">
          <mxGeometry y="82" width="490" height="26" as="geometry" />
        </mxCell>
        <mxCell id="zlpquRdz48AsANumm2sr-26" value="" style="endArrow=block;dashed=1;endFill=0;endSize=12;html=1;rounded=0;" parent="1" source="zlpquRdz48AsANumm2sr-22" target="zlpquRdz48AsANumm2sr-16" edge="1">
          <mxGeometry width="160" relative="1" as="geometry">
            <mxPoint x="250" y="-240" as="sourcePoint" />
            <mxPoint x="410" y="-240" as="targetPoint" />
          </mxGeometry>
        </mxCell>
        <mxCell id="zlpquRdz48AsANumm2sr-27" value="&lt;div&gt;&lt;b&gt;&amp;lt;&amp;lt;interface&amp;gt;&amp;gt;&lt;/b&gt;&lt;/div&gt;&lt;b&gt;AuthService&lt;/b&gt;" style="swimlane;fontStyle=0;childLayout=stackLayout;horizontal=1;startSize=40;fillColor=none;horizontalStack=0;resizeParent=1;resizeParentMax=0;resizeLast=0;collapsible=1;marginBottom=0;whiteSpace=wrap;html=1;" parent="1" vertex="1">
          <mxGeometry x="640" y="-240" width="490" height="118" as="geometry" />
        </mxCell>
        <mxCell id="zlpquRdz48AsANumm2sr-28" value="+ loginAsAdmin(String username, String password): boolean" style="text;strokeColor=none;fillColor=none;align=left;verticalAlign=top;spacingLeft=4;spacingRight=4;overflow=hidden;rotatable=0;points=[[0,0.5],[1,0.5]];portConstraint=eastwest;whiteSpace=wrap;html=1;" parent="zlpquRdz48AsANumm2sr-27" vertex="1">
          <mxGeometry y="40" width="490" height="26" as="geometry" />
        </mxCell>
        <mxCell id="zlpquRdz48AsANumm2sr-29" value="+ loginAsStudent(String username, String password): boolean" style="text;strokeColor=none;fillColor=none;align=left;verticalAlign=top;spacingLeft=4;spacingRight=4;overflow=hidden;rotatable=0;points=[[0,0.5],[1,0.5]];portConstraint=eastwest;whiteSpace=wrap;html=1;" parent="zlpquRdz48AsANumm2sr-27" vertex="1">
          <mxGeometry y="66" width="490" height="26" as="geometry" />
        </mxCell>
        <mxCell id="zlpquRdz48AsANumm2sr-48" value="+ changePassword(String username, String oldPassword String newPassword): boolean" style="text;strokeColor=none;fillColor=none;align=left;verticalAlign=top;spacingLeft=4;spacingRight=4;overflow=hidden;rotatable=0;points=[[0,0.5],[1,0.5]];portConstraint=eastwest;whiteSpace=wrap;html=1;" parent="zlpquRdz48AsANumm2sr-27" vertex="1">
          <mxGeometry y="92" width="490" height="26" as="geometry" />
        </mxCell>
        <mxCell id="zlpquRdz48AsANumm2sr-31" value="&lt;div&gt;&lt;span style=&quot;background-color: transparent; color: light-dark(rgb(0, 0, 0), rgb(255, 255, 255));&quot;&gt;AuthServiceImp&lt;/span&gt;&lt;/div&gt;" style="swimlane;fontStyle=0;childLayout=stackLayout;horizontal=1;startSize=30;fillColor=none;horizontalStack=0;resizeParent=1;resizeParentMax=0;resizeLast=0;collapsible=1;marginBottom=0;whiteSpace=wrap;html=1;" parent="1" vertex="1">
          <mxGeometry x="640" y="-72" width="490" height="108" as="geometry" />
        </mxCell>
        <mxCell id="zlpquRdz48AsANumm2sr-32" value="+ loginAsAdmin(String username, String password): boolean" style="text;strokeColor=none;fillColor=none;align=left;verticalAlign=top;spacingLeft=4;spacingRight=4;overflow=hidden;rotatable=0;points=[[0,0.5],[1,0.5]];portConstraint=eastwest;whiteSpace=wrap;html=1;" parent="zlpquRdz48AsANumm2sr-31" vertex="1">
          <mxGeometry y="30" width="490" height="26" as="geometry" />
        </mxCell>
        <mxCell id="zlpquRdz48AsANumm2sr-33" value="+ loginAsStudent(String username, String password): boolean" style="text;strokeColor=none;fillColor=none;align=left;verticalAlign=top;spacingLeft=4;spacingRight=4;overflow=hidden;rotatable=0;points=[[0,0.5],[1,0.5]];portConstraint=eastwest;whiteSpace=wrap;html=1;" parent="zlpquRdz48AsANumm2sr-31" vertex="1">
          <mxGeometry y="56" width="490" height="26" as="geometry" />
        </mxCell>
        <mxCell id="zlpquRdz48AsANumm2sr-49" value="+ changePassword(String username, String oldPassword String newPassword): boolean" style="text;strokeColor=none;fillColor=none;align=left;verticalAlign=top;spacingLeft=4;spacingRight=4;overflow=hidden;rotatable=0;points=[[0,0.5],[1,0.5]];portConstraint=eastwest;whiteSpace=wrap;html=1;" parent="zlpquRdz48AsANumm2sr-31" vertex="1">
          <mxGeometry y="82" width="490" height="26" as="geometry" />
        </mxCell>
        <mxCell id="zlpquRdz48AsANumm2sr-35" value="" style="endArrow=block;dashed=1;endFill=0;endSize=12;html=1;rounded=0;" parent="1" source="zlpquRdz48AsANumm2sr-31" target="zlpquRdz48AsANumm2sr-27" edge="1">
          <mxGeometry width="160" relative="1" as="geometry">
            <mxPoint x="690" y="-245" as="sourcePoint" />
            <mxPoint x="850" y="-245" as="targetPoint" />
          </mxGeometry>
        </mxCell>
        <mxCell id="zlpquRdz48AsANumm2sr-36" value="" style="endArrow=open;endFill=1;endSize=12;html=1;rounded=0;" parent="1" source="zlpquRdz48AsANumm2sr-27" target="zlpquRdz48AsANumm2sr-22" edge="1">
          <mxGeometry width="160" relative="1" as="geometry">
            <mxPoint x="820" y="-270" as="sourcePoint" />
            <mxPoint x="980" y="-270" as="targetPoint" />
          </mxGeometry>
        </mxCell>
        <mxCell id="zlpquRdz48AsANumm2sr-37" value="&lt;div&gt;&lt;b style=&quot;&quot;&gt;&amp;lt;&amp;lt;interface&amp;gt;&amp;gt;&lt;/b&gt;&lt;/div&gt;&lt;b style=&quot;&quot;&gt;CourseManagerDAO&lt;/b&gt;" style="swimlane;fontStyle=0;childLayout=stackLayout;horizontal=1;startSize=32;fillColor=none;horizontalStack=0;resizeParent=1;resizeParentMax=0;resizeLast=0;collapsible=1;marginBottom=0;whiteSpace=wrap;html=1;" parent="1" vertex="1">
          <mxGeometry x="570" y="720" width="290" height="214" as="geometry" />
        </mxCell>
        <mxCell id="zlpquRdz48AsANumm2sr-41" value="+ findAll(): List&amp;lt;Course&amp;gt;" style="text;strokeColor=none;fillColor=none;align=left;verticalAlign=top;spacingLeft=4;spacingRight=4;overflow=hidden;rotatable=0;points=[[0,0.5],[1,0.5]];portConstraint=eastwest;whiteSpace=wrap;html=1;" parent="zlpquRdz48AsANumm2sr-37" vertex="1">
          <mxGeometry y="32" width="290" height="26" as="geometry" />
        </mxCell>
        <mxCell id="zlpquRdz48AsANumm2sr-45" value="+ findPage(int page, int size): Pagination&amp;lt;Course&amp;gt;" style="text;strokeColor=none;fillColor=none;align=left;verticalAlign=top;spacingLeft=4;spacingRight=4;overflow=hidden;rotatable=0;points=[[0,0.5],[1,0.5]];portConstraint=eastwest;whiteSpace=wrap;html=1;" parent="zlpquRdz48AsANumm2sr-37" vertex="1">
          <mxGeometry y="58" width="290" height="26" as="geometry" />
        </mxCell>
        <mxCell id="zlpquRdz48AsANumm2sr-44" value="+ delete(Course course):boolean" style="text;strokeColor=none;fillColor=none;align=left;verticalAlign=top;spacingLeft=4;spacingRight=4;overflow=hidden;rotatable=0;points=[[0,0.5],[1,0.5]];portConstraint=eastwest;whiteSpace=wrap;html=1;" parent="zlpquRdz48AsANumm2sr-37" vertex="1">
          <mxGeometry y="84" width="290" height="26" as="geometry" />
        </mxCell>
        <mxCell id="zlpquRdz48AsANumm2sr-43" value="+ update(Course course): boolean" style="text;strokeColor=none;fillColor=none;align=left;verticalAlign=top;spacingLeft=4;spacingRight=4;overflow=hidden;rotatable=0;points=[[0,0.5],[1,0.5]];portConstraint=eastwest;whiteSpace=wrap;html=1;" parent="zlpquRdz48AsANumm2sr-37" vertex="1">
          <mxGeometry y="110" width="290" height="26" as="geometry" />
        </mxCell>
        <mxCell id="zlpquRdz48AsANumm2sr-42" value="+ save(Course course): boolean" style="text;strokeColor=none;fillColor=none;align=left;verticalAlign=top;spacingLeft=4;spacingRight=4;overflow=hidden;rotatable=0;points=[[0,0.5],[1,0.5]];portConstraint=eastwest;whiteSpace=wrap;html=1;" parent="zlpquRdz48AsANumm2sr-37" vertex="1">
          <mxGeometry y="136" width="290" height="26" as="geometry" />
        </mxCell>
        <mxCell id="zlpquRdz48AsANumm2sr-52" value="+ findCourseById(String id): Course" style="text;strokeColor=none;fillColor=none;align=left;verticalAlign=top;spacingLeft=4;spacingRight=4;overflow=hidden;rotatable=0;points=[[0,0.5],[1,0.5]];portConstraint=eastwest;whiteSpace=wrap;html=1;" parent="zlpquRdz48AsANumm2sr-37" vertex="1">
          <mxGeometry y="162" width="290" height="26" as="geometry" />
        </mxCell>
        <mxCell id="zlpquRdz48AsANumm2sr-53" value="+ sortCourseByName(): void" style="text;strokeColor=none;fillColor=none;align=left;verticalAlign=top;spacingLeft=4;spacingRight=4;overflow=hidden;rotatable=0;points=[[0,0.5],[1,0.5]];portConstraint=eastwest;whiteSpace=wrap;html=1;" parent="zlpquRdz48AsANumm2sr-37" vertex="1">
          <mxGeometry y="188" width="290" height="26" as="geometry" />
        </mxCell>
        <mxCell id="zlpquRdz48AsANumm2sr-51" value="Use" style="endArrow=open;endSize=12;dashed=1;html=1;rounded=0;" parent="1" source="zlpquRdz48AsANumm2sr-16" target="Q_YXP4lk02ADxKYNfTab-24" edge="1">
          <mxGeometry width="160" relative="1" as="geometry">
            <mxPoint x="30" y="810" as="sourcePoint" />
            <mxPoint x="190" y="810" as="targetPoint" />
          </mxGeometry>
        </mxCell>
        <mxCell id="zlpquRdz48AsANumm2sr-55" value="&lt;div&gt;&lt;span style=&quot;background-color: transparent; color: light-dark(rgb(0, 0, 0), rgb(255, 255, 255));&quot;&gt;CourseManagerDAOImp&lt;/span&gt;&lt;/div&gt;" style="swimlane;fontStyle=0;childLayout=stackLayout;horizontal=1;startSize=32;fillColor=none;horizontalStack=0;resizeParent=1;resizeParentMax=0;resizeLast=0;collapsible=1;marginBottom=0;whiteSpace=wrap;html=1;" parent="1" vertex="1">
          <mxGeometry x="570" y="990" width="290" height="214" as="geometry" />
        </mxCell>
        <mxCell id="zlpquRdz48AsANumm2sr-56" value="+ findAll(): List&amp;lt;Course&amp;gt;" style="text;strokeColor=none;fillColor=none;align=left;verticalAlign=top;spacingLeft=4;spacingRight=4;overflow=hidden;rotatable=0;points=[[0,0.5],[1,0.5]];portConstraint=eastwest;whiteSpace=wrap;html=1;" parent="zlpquRdz48AsANumm2sr-55" vertex="1">
          <mxGeometry y="32" width="290" height="26" as="geometry" />
        </mxCell>
        <mxCell id="zlpquRdz48AsANumm2sr-57" value="+ findPage(int page, int size): Pagination&amp;lt;Course&amp;gt;" style="text;strokeColor=none;fillColor=none;align=left;verticalAlign=top;spacingLeft=4;spacingRight=4;overflow=hidden;rotatable=0;points=[[0,0.5],[1,0.5]];portConstraint=eastwest;whiteSpace=wrap;html=1;" parent="zlpquRdz48AsANumm2sr-55" vertex="1">
          <mxGeometry y="58" width="290" height="26" as="geometry" />
        </mxCell>
        <mxCell id="zlpquRdz48AsANumm2sr-58" value="+ delete(Course course):boolean" style="text;strokeColor=none;fillColor=none;align=left;verticalAlign=top;spacingLeft=4;spacingRight=4;overflow=hidden;rotatable=0;points=[[0,0.5],[1,0.5]];portConstraint=eastwest;whiteSpace=wrap;html=1;" parent="zlpquRdz48AsANumm2sr-55" vertex="1">
          <mxGeometry y="84" width="290" height="26" as="geometry" />
        </mxCell>
        <mxCell id="zlpquRdz48AsANumm2sr-59" value="+ update(Course course): boolean" style="text;strokeColor=none;fillColor=none;align=left;verticalAlign=top;spacingLeft=4;spacingRight=4;overflow=hidden;rotatable=0;points=[[0,0.5],[1,0.5]];portConstraint=eastwest;whiteSpace=wrap;html=1;" parent="zlpquRdz48AsANumm2sr-55" vertex="1">
          <mxGeometry y="110" width="290" height="26" as="geometry" />
        </mxCell>
        <mxCell id="zlpquRdz48AsANumm2sr-60" value="+ save(Course course): boolean" style="text;strokeColor=none;fillColor=none;align=left;verticalAlign=top;spacingLeft=4;spacingRight=4;overflow=hidden;rotatable=0;points=[[0,0.5],[1,0.5]];portConstraint=eastwest;whiteSpace=wrap;html=1;" parent="zlpquRdz48AsANumm2sr-55" vertex="1">
          <mxGeometry y="136" width="290" height="26" as="geometry" />
        </mxCell>
        <mxCell id="zlpquRdz48AsANumm2sr-61" value="+ findCourseById(String id): Course" style="text;strokeColor=none;fillColor=none;align=left;verticalAlign=top;spacingLeft=4;spacingRight=4;overflow=hidden;rotatable=0;points=[[0,0.5],[1,0.5]];portConstraint=eastwest;whiteSpace=wrap;html=1;" parent="zlpquRdz48AsANumm2sr-55" vertex="1">
          <mxGeometry y="162" width="290" height="26" as="geometry" />
        </mxCell>
        <mxCell id="zlpquRdz48AsANumm2sr-62" value="+ sortCourseByName(): void" style="text;strokeColor=none;fillColor=none;align=left;verticalAlign=top;spacingLeft=4;spacingRight=4;overflow=hidden;rotatable=0;points=[[0,0.5],[1,0.5]];portConstraint=eastwest;whiteSpace=wrap;html=1;" parent="zlpquRdz48AsANumm2sr-55" vertex="1">
          <mxGeometry y="188" width="290" height="26" as="geometry" />
        </mxCell>
        <mxCell id="zlpquRdz48AsANumm2sr-64" value="" style="endArrow=open;endFill=1;endSize=12;html=1;rounded=0;" parent="1" source="zlpquRdz48AsANumm2sr-37" target="MJI2ajQQupjb3d7geVpr-5" edge="1">
          <mxGeometry width="160" relative="1" as="geometry">
            <mxPoint x="950" y="590" as="sourcePoint" />
            <mxPoint x="1110" y="590" as="targetPoint" />
            <Array as="points" />
          </mxGeometry>
        </mxCell>
        <mxCell id="zlpquRdz48AsANumm2sr-65" value="&lt;div&gt;&lt;b&gt;&amp;lt;&amp;lt;interface&amp;gt;&amp;gt;&lt;/b&gt;&lt;/div&gt;&lt;b&gt;CourseManagerService&lt;/b&gt;" style="swimlane;fontStyle=0;childLayout=stackLayout;horizontal=1;startSize=32;fillColor=none;horizontalStack=0;resizeParent=1;resizeParentMax=0;resizeLast=0;collapsible=1;marginBottom=0;whiteSpace=wrap;html=1;" parent="1" vertex="1">
          <mxGeometry x="951" y="990" width="290" height="214" as="geometry" />
        </mxCell>
        <mxCell id="zlpquRdz48AsANumm2sr-66" value="+ findAll(): List&amp;lt;Course&amp;gt;" style="text;strokeColor=none;fillColor=none;align=left;verticalAlign=top;spacingLeft=4;spacingRight=4;overflow=hidden;rotatable=0;points=[[0,0.5],[1,0.5]];portConstraint=eastwest;whiteSpace=wrap;html=1;" parent="zlpquRdz48AsANumm2sr-65" vertex="1">
          <mxGeometry y="32" width="290" height="26" as="geometry" />
        </mxCell>
        <mxCell id="zlpquRdz48AsANumm2sr-67" value="+ findPage(int page, int size): Pagination&amp;lt;Course&amp;gt;" style="text;strokeColor=none;fillColor=none;align=left;verticalAlign=top;spacingLeft=4;spacingRight=4;overflow=hidden;rotatable=0;points=[[0,0.5],[1,0.5]];portConstraint=eastwest;whiteSpace=wrap;html=1;" parent="zlpquRdz48AsANumm2sr-65" vertex="1">
          <mxGeometry y="58" width="290" height="26" as="geometry" />
        </mxCell>
        <mxCell id="zlpquRdz48AsANumm2sr-68" value="+ delete(Course course):boolean" style="text;strokeColor=none;fillColor=none;align=left;verticalAlign=top;spacingLeft=4;spacingRight=4;overflow=hidden;rotatable=0;points=[[0,0.5],[1,0.5]];portConstraint=eastwest;whiteSpace=wrap;html=1;" parent="zlpquRdz48AsANumm2sr-65" vertex="1">
          <mxGeometry y="84" width="290" height="26" as="geometry" />
        </mxCell>
        <mxCell id="zlpquRdz48AsANumm2sr-69" value="+ update(Course course): boolean" style="text;strokeColor=none;fillColor=none;align=left;verticalAlign=top;spacingLeft=4;spacingRight=4;overflow=hidden;rotatable=0;points=[[0,0.5],[1,0.5]];portConstraint=eastwest;whiteSpace=wrap;html=1;" parent="zlpquRdz48AsANumm2sr-65" vertex="1">
          <mxGeometry y="110" width="290" height="26" as="geometry" />
        </mxCell>
        <mxCell id="zlpquRdz48AsANumm2sr-70" value="+ save(Course course): boolean" style="text;strokeColor=none;fillColor=none;align=left;verticalAlign=top;spacingLeft=4;spacingRight=4;overflow=hidden;rotatable=0;points=[[0,0.5],[1,0.5]];portConstraint=eastwest;whiteSpace=wrap;html=1;" parent="zlpquRdz48AsANumm2sr-65" vertex="1">
          <mxGeometry y="136" width="290" height="26" as="geometry" />
        </mxCell>
        <mxCell id="zlpquRdz48AsANumm2sr-71" value="+ findCourseById(String id): Course" style="text;strokeColor=none;fillColor=none;align=left;verticalAlign=top;spacingLeft=4;spacingRight=4;overflow=hidden;rotatable=0;points=[[0,0.5],[1,0.5]];portConstraint=eastwest;whiteSpace=wrap;html=1;" parent="zlpquRdz48AsANumm2sr-65" vertex="1">
          <mxGeometry y="162" width="290" height="26" as="geometry" />
        </mxCell>
        <mxCell id="zlpquRdz48AsANumm2sr-72" value="+ sortCourseByName(): void" style="text;strokeColor=none;fillColor=none;align=left;verticalAlign=top;spacingLeft=4;spacingRight=4;overflow=hidden;rotatable=0;points=[[0,0.5],[1,0.5]];portConstraint=eastwest;whiteSpace=wrap;html=1;" parent="zlpquRdz48AsANumm2sr-65" vertex="1">
          <mxGeometry y="188" width="290" height="26" as="geometry" />
        </mxCell>
        <mxCell id="zlpquRdz48AsANumm2sr-73" value="&lt;div&gt;&lt;span style=&quot;background-color: transparent; color: light-dark(rgb(0, 0, 0), rgb(255, 255, 255));&quot;&gt;CourseManagerServiceImp&lt;/span&gt;&lt;/div&gt;" style="swimlane;fontStyle=0;childLayout=stackLayout;horizontal=1;startSize=32;fillColor=none;horizontalStack=0;resizeParent=1;resizeParentMax=0;resizeLast=0;collapsible=1;marginBottom=0;whiteSpace=wrap;html=1;" parent="1" vertex="1">
          <mxGeometry x="951" y="720" width="290" height="214" as="geometry" />
        </mxCell>
        <mxCell id="zlpquRdz48AsANumm2sr-74" value="+ findAll(): List&amp;lt;Course&amp;gt;" style="text;strokeColor=none;fillColor=none;align=left;verticalAlign=top;spacingLeft=4;spacingRight=4;overflow=hidden;rotatable=0;points=[[0,0.5],[1,0.5]];portConstraint=eastwest;whiteSpace=wrap;html=1;" parent="zlpquRdz48AsANumm2sr-73" vertex="1">
          <mxGeometry y="32" width="290" height="26" as="geometry" />
        </mxCell>
        <mxCell id="zlpquRdz48AsANumm2sr-75" value="+ findPage(int page, int size): Pagination&amp;lt;Course&amp;gt;" style="text;strokeColor=none;fillColor=none;align=left;verticalAlign=top;spacingLeft=4;spacingRight=4;overflow=hidden;rotatable=0;points=[[0,0.5],[1,0.5]];portConstraint=eastwest;whiteSpace=wrap;html=1;" parent="zlpquRdz48AsANumm2sr-73" vertex="1">
          <mxGeometry y="58" width="290" height="26" as="geometry" />
        </mxCell>
        <mxCell id="zlpquRdz48AsANumm2sr-76" value="+ delete(Course course):boolean" style="text;strokeColor=none;fillColor=none;align=left;verticalAlign=top;spacingLeft=4;spacingRight=4;overflow=hidden;rotatable=0;points=[[0,0.5],[1,0.5]];portConstraint=eastwest;whiteSpace=wrap;html=1;" parent="zlpquRdz48AsANumm2sr-73" vertex="1">
          <mxGeometry y="84" width="290" height="26" as="geometry" />
        </mxCell>
        <mxCell id="zlpquRdz48AsANumm2sr-77" value="+ update(Course course): boolean" style="text;strokeColor=none;fillColor=none;align=left;verticalAlign=top;spacingLeft=4;spacingRight=4;overflow=hidden;rotatable=0;points=[[0,0.5],[1,0.5]];portConstraint=eastwest;whiteSpace=wrap;html=1;" parent="zlpquRdz48AsANumm2sr-73" vertex="1">
          <mxGeometry y="110" width="290" height="26" as="geometry" />
        </mxCell>
        <mxCell id="zlpquRdz48AsANumm2sr-78" value="+ save(Course course): boolean" style="text;strokeColor=none;fillColor=none;align=left;verticalAlign=top;spacingLeft=4;spacingRight=4;overflow=hidden;rotatable=0;points=[[0,0.5],[1,0.5]];portConstraint=eastwest;whiteSpace=wrap;html=1;" parent="zlpquRdz48AsANumm2sr-73" vertex="1">
          <mxGeometry y="136" width="290" height="26" as="geometry" />
        </mxCell>
        <mxCell id="zlpquRdz48AsANumm2sr-79" value="+ findCourseById(String id): Course" style="text;strokeColor=none;fillColor=none;align=left;verticalAlign=top;spacingLeft=4;spacingRight=4;overflow=hidden;rotatable=0;points=[[0,0.5],[1,0.5]];portConstraint=eastwest;whiteSpace=wrap;html=1;" parent="zlpquRdz48AsANumm2sr-73" vertex="1">
          <mxGeometry y="162" width="290" height="26" as="geometry" />
        </mxCell>
        <mxCell id="zlpquRdz48AsANumm2sr-80" value="+ sortCourseByName(): void" style="text;strokeColor=none;fillColor=none;align=left;verticalAlign=top;spacingLeft=4;spacingRight=4;overflow=hidden;rotatable=0;points=[[0,0.5],[1,0.5]];portConstraint=eastwest;whiteSpace=wrap;html=1;" parent="zlpquRdz48AsANumm2sr-73" vertex="1">
          <mxGeometry y="188" width="290" height="26" as="geometry" />
        </mxCell>
        <mxCell id="zlpquRdz48AsANumm2sr-82" value="" style="endArrow=open;endFill=1;endSize=12;html=1;rounded=0;" parent="1" source="zlpquRdz48AsANumm2sr-65" target="zlpquRdz48AsANumm2sr-55" edge="1">
          <mxGeometry width="160" relative="1" as="geometry">
            <mxPoint x="1310" y="960" as="sourcePoint" />
            <mxPoint x="1470" y="960" as="targetPoint" />
          </mxGeometry>
        </mxCell>
        <mxCell id="wUqr1XjHqU2ajMvmgp6c-4" value="&lt;b&gt;&amp;lt;&amp;lt;interface&amp;gt;&amp;gt;&lt;br&gt;StudentManagerDAO&lt;/b&gt;" style="swimlane;fontStyle=0;childLayout=stackLayout;horizontal=1;startSize=37;fillColor=none;horizontalStack=0;resizeParent=1;resizeParentMax=0;resizeLast=0;collapsible=1;marginBottom=0;whiteSpace=wrap;html=1;" parent="1" vertex="1">
          <mxGeometry x="220" y="683" width="290" height="297" as="geometry" />
        </mxCell>
        <mxCell id="wUqr1XjHqU2ajMvmgp6c-8" value="+ findAll(): List&amp;lt;Student&amp;gt;" style="text;strokeColor=none;fillColor=none;align=left;verticalAlign=top;spacingLeft=4;spacingRight=4;overflow=hidden;rotatable=0;points=[[0,0.5],[1,0.5]];portConstraint=eastwest;whiteSpace=wrap;html=1;" parent="wUqr1XjHqU2ajMvmgp6c-4" vertex="1">
          <mxGeometry y="37" width="290" height="26" as="geometry" />
        </mxCell>
        <mxCell id="wUqr1XjHqU2ajMvmgp6c-12" value="+ findPage(int page, int size): Pagination&amp;lt;Student&amp;gt;" style="text;strokeColor=none;fillColor=none;align=left;verticalAlign=top;spacingLeft=4;spacingRight=4;overflow=hidden;rotatable=0;points=[[0,0.5],[1,0.5]];portConstraint=eastwest;whiteSpace=wrap;html=1;" parent="wUqr1XjHqU2ajMvmgp6c-4" vertex="1">
          <mxGeometry y="63" width="290" height="26" as="geometry" />
        </mxCell>
        <mxCell id="wUqr1XjHqU2ajMvmgp6c-11" value="+ delete(Student student):boolean" style="text;strokeColor=none;fillColor=none;align=left;verticalAlign=top;spacingLeft=4;spacingRight=4;overflow=hidden;rotatable=0;points=[[0,0.5],[1,0.5]];portConstraint=eastwest;whiteSpace=wrap;html=1;" parent="wUqr1XjHqU2ajMvmgp6c-4" vertex="1">
          <mxGeometry y="89" width="290" height="26" as="geometry" />
        </mxCell>
        <mxCell id="wUqr1XjHqU2ajMvmgp6c-10" value="+ update(Student student: boolean" style="text;strokeColor=none;fillColor=none;align=left;verticalAlign=top;spacingLeft=4;spacingRight=4;overflow=hidden;rotatable=0;points=[[0,0.5],[1,0.5]];portConstraint=eastwest;whiteSpace=wrap;html=1;" parent="wUqr1XjHqU2ajMvmgp6c-4" vertex="1">
          <mxGeometry y="115" width="290" height="26" as="geometry" />
        </mxCell>
        <mxCell id="wUqr1XjHqU2ajMvmgp6c-15" value="+ save(Student student): boolean" style="text;strokeColor=none;fillColor=none;align=left;verticalAlign=top;spacingLeft=4;spacingRight=4;overflow=hidden;rotatable=0;points=[[0,0.5],[1,0.5]];portConstraint=eastwest;whiteSpace=wrap;html=1;" parent="wUqr1XjHqU2ajMvmgp6c-4" vertex="1">
          <mxGeometry y="141" width="290" height="26" as="geometry" />
        </mxCell>
        <mxCell id="wUqr1XjHqU2ajMvmgp6c-13" value="+ save(Student student): boolean" style="text;strokeColor=none;fillColor=none;align=left;verticalAlign=top;spacingLeft=4;spacingRight=4;overflow=hidden;rotatable=0;points=[[0,0.5],[1,0.5]];portConstraint=eastwest;whiteSpace=wrap;html=1;" parent="wUqr1XjHqU2ajMvmgp6c-4" vertex="1">
          <mxGeometry y="167" width="290" height="26" as="geometry" />
        </mxCell>
        <mxCell id="wUqr1XjHqU2ajMvmgp6c-14" value="+ sortStudentByName(): boolean" style="text;strokeColor=none;fillColor=none;align=left;verticalAlign=top;spacingLeft=4;spacingRight=4;overflow=hidden;rotatable=0;points=[[0,0.5],[1,0.5]];portConstraint=eastwest;whiteSpace=wrap;html=1;" parent="wUqr1XjHqU2ajMvmgp6c-4" vertex="1">
          <mxGeometry y="193" width="290" height="26" as="geometry" />
        </mxCell>
        <mxCell id="wUqr1XjHqU2ajMvmgp6c-50" value="+ sortStudentByEmail(): boolean" style="text;strokeColor=none;fillColor=none;align=left;verticalAlign=top;spacingLeft=4;spacingRight=4;overflow=hidden;rotatable=0;points=[[0,0.5],[1,0.5]];portConstraint=eastwest;whiteSpace=wrap;html=1;" parent="wUqr1XjHqU2ajMvmgp6c-4" vertex="1">
          <mxGeometry y="219" width="290" height="26" as="geometry" />
        </mxCell>
        <mxCell id="wUqr1XjHqU2ajMvmgp6c-51" value="+ findStudentByName(String name): Student" style="text;strokeColor=none;fillColor=none;align=left;verticalAlign=top;spacingLeft=4;spacingRight=4;overflow=hidden;rotatable=0;points=[[0,0.5],[1,0.5]];portConstraint=eastwest;whiteSpace=wrap;html=1;" parent="wUqr1XjHqU2ajMvmgp6c-4" vertex="1">
          <mxGeometry y="245" width="290" height="26" as="geometry" />
        </mxCell>
        <mxCell id="wUqr1XjHqU2ajMvmgp6c-9" value="+ findStudentByEmail(String email): Student" style="text;strokeColor=none;fillColor=none;align=left;verticalAlign=top;spacingLeft=4;spacingRight=4;overflow=hidden;rotatable=0;points=[[0,0.5],[1,0.5]];portConstraint=eastwest;whiteSpace=wrap;html=1;" parent="wUqr1XjHqU2ajMvmgp6c-4" vertex="1">
          <mxGeometry y="271" width="290" height="26" as="geometry" />
        </mxCell>
        <mxCell id="wUqr1XjHqU2ajMvmgp6c-16" value="" style="endArrow=open;endFill=1;endSize=12;html=1;rounded=0;" parent="1" source="wUqr1XjHqU2ajMvmgp6c-4" target="Q_YXP4lk02ADxKYNfTab-8" edge="1">
          <mxGeometry width="160" relative="1" as="geometry">
            <mxPoint x="120" y="610" as="sourcePoint" />
            <mxPoint x="280" y="610" as="targetPoint" />
          </mxGeometry>
        </mxCell>
        <mxCell id="wUqr1XjHqU2ajMvmgp6c-27" value="" style="endArrow=block;dashed=1;endFill=0;endSize=12;html=1;rounded=0;" parent="1" source="zlpquRdz48AsANumm2sr-55" target="zlpquRdz48AsANumm2sr-37" edge="1">
          <mxGeometry width="160" relative="1" as="geometry">
            <mxPoint x="190" y="1360" as="sourcePoint" />
            <mxPoint x="350" y="1360" as="targetPoint" />
          </mxGeometry>
        </mxCell>
        <mxCell id="wUqr1XjHqU2ajMvmgp6c-28" value="" style="endArrow=block;dashed=1;endFill=0;endSize=12;html=1;rounded=0;" parent="1" source="zlpquRdz48AsANumm2sr-73" target="zlpquRdz48AsANumm2sr-65" edge="1">
          <mxGeometry width="160" relative="1" as="geometry">
            <mxPoint x="940" y="1270" as="sourcePoint" />
            <mxPoint x="1100" y="1270" as="targetPoint" />
          </mxGeometry>
        </mxCell>
        <mxCell id="wUqr1XjHqU2ajMvmgp6c-52" value="StudentManagerDAOImp" style="swimlane;fontStyle=0;childLayout=stackLayout;horizontal=1;startSize=30;fillColor=none;horizontalStack=0;resizeParent=1;resizeParentMax=0;resizeLast=0;collapsible=1;marginBottom=0;whiteSpace=wrap;html=1;" parent="1" vertex="1">
          <mxGeometry x="220" y="1030" width="290" height="290" as="geometry" />
        </mxCell>
        <mxCell id="wUqr1XjHqU2ajMvmgp6c-53" value="+ findAll(): List&amp;lt;Student&amp;gt;" style="text;strokeColor=none;fillColor=none;align=left;verticalAlign=top;spacingLeft=4;spacingRight=4;overflow=hidden;rotatable=0;points=[[0,0.5],[1,0.5]];portConstraint=eastwest;whiteSpace=wrap;html=1;" parent="wUqr1XjHqU2ajMvmgp6c-52" vertex="1">
          <mxGeometry y="30" width="290" height="26" as="geometry" />
        </mxCell>
        <mxCell id="wUqr1XjHqU2ajMvmgp6c-54" value="+ findPage(int page, int size): Pagination&amp;lt;Student&amp;gt;" style="text;strokeColor=none;fillColor=none;align=left;verticalAlign=top;spacingLeft=4;spacingRight=4;overflow=hidden;rotatable=0;points=[[0,0.5],[1,0.5]];portConstraint=eastwest;whiteSpace=wrap;html=1;" parent="wUqr1XjHqU2ajMvmgp6c-52" vertex="1">
          <mxGeometry y="56" width="290" height="26" as="geometry" />
        </mxCell>
        <mxCell id="wUqr1XjHqU2ajMvmgp6c-55" value="+ delete(Student student):boolean" style="text;strokeColor=none;fillColor=none;align=left;verticalAlign=top;spacingLeft=4;spacingRight=4;overflow=hidden;rotatable=0;points=[[0,0.5],[1,0.5]];portConstraint=eastwest;whiteSpace=wrap;html=1;" parent="wUqr1XjHqU2ajMvmgp6c-52" vertex="1">
          <mxGeometry y="82" width="290" height="26" as="geometry" />
        </mxCell>
        <mxCell id="wUqr1XjHqU2ajMvmgp6c-56" value="+ update(Student student: boolean" style="text;strokeColor=none;fillColor=none;align=left;verticalAlign=top;spacingLeft=4;spacingRight=4;overflow=hidden;rotatable=0;points=[[0,0.5],[1,0.5]];portConstraint=eastwest;whiteSpace=wrap;html=1;" parent="wUqr1XjHqU2ajMvmgp6c-52" vertex="1">
          <mxGeometry y="108" width="290" height="26" as="geometry" />
        </mxCell>
        <mxCell id="wUqr1XjHqU2ajMvmgp6c-57" value="+ save(Student student): boolean" style="text;strokeColor=none;fillColor=none;align=left;verticalAlign=top;spacingLeft=4;spacingRight=4;overflow=hidden;rotatable=0;points=[[0,0.5],[1,0.5]];portConstraint=eastwest;whiteSpace=wrap;html=1;" parent="wUqr1XjHqU2ajMvmgp6c-52" vertex="1">
          <mxGeometry y="134" width="290" height="26" as="geometry" />
        </mxCell>
        <mxCell id="wUqr1XjHqU2ajMvmgp6c-58" value="+ save(Student student): boolean" style="text;strokeColor=none;fillColor=none;align=left;verticalAlign=top;spacingLeft=4;spacingRight=4;overflow=hidden;rotatable=0;points=[[0,0.5],[1,0.5]];portConstraint=eastwest;whiteSpace=wrap;html=1;" parent="wUqr1XjHqU2ajMvmgp6c-52" vertex="1">
          <mxGeometry y="160" width="290" height="26" as="geometry" />
        </mxCell>
        <mxCell id="wUqr1XjHqU2ajMvmgp6c-59" value="+ sortStudentByName(): boolean" style="text;strokeColor=none;fillColor=none;align=left;verticalAlign=top;spacingLeft=4;spacingRight=4;overflow=hidden;rotatable=0;points=[[0,0.5],[1,0.5]];portConstraint=eastwest;whiteSpace=wrap;html=1;" parent="wUqr1XjHqU2ajMvmgp6c-52" vertex="1">
          <mxGeometry y="186" width="290" height="26" as="geometry" />
        </mxCell>
        <mxCell id="wUqr1XjHqU2ajMvmgp6c-60" value="+ sortStudentByEmail(): boolean" style="text;strokeColor=none;fillColor=none;align=left;verticalAlign=top;spacingLeft=4;spacingRight=4;overflow=hidden;rotatable=0;points=[[0,0.5],[1,0.5]];portConstraint=eastwest;whiteSpace=wrap;html=1;" parent="wUqr1XjHqU2ajMvmgp6c-52" vertex="1">
          <mxGeometry y="212" width="290" height="26" as="geometry" />
        </mxCell>
        <mxCell id="wUqr1XjHqU2ajMvmgp6c-61" value="+ findStudentByName(String name): Student" style="text;strokeColor=none;fillColor=none;align=left;verticalAlign=top;spacingLeft=4;spacingRight=4;overflow=hidden;rotatable=0;points=[[0,0.5],[1,0.5]];portConstraint=eastwest;whiteSpace=wrap;html=1;" parent="wUqr1XjHqU2ajMvmgp6c-52" vertex="1">
          <mxGeometry y="238" width="290" height="26" as="geometry" />
        </mxCell>
        <mxCell id="wUqr1XjHqU2ajMvmgp6c-62" value="+ findStudentByEmail(String email): Student" style="text;strokeColor=none;fillColor=none;align=left;verticalAlign=top;spacingLeft=4;spacingRight=4;overflow=hidden;rotatable=0;points=[[0,0.5],[1,0.5]];portConstraint=eastwest;whiteSpace=wrap;html=1;" parent="wUqr1XjHqU2ajMvmgp6c-52" vertex="1">
          <mxGeometry y="264" width="290" height="26" as="geometry" />
        </mxCell>
        <mxCell id="wUqr1XjHqU2ajMvmgp6c-63" value="" style="endArrow=block;dashed=1;endFill=0;endSize=12;html=1;rounded=0;" parent="1" source="wUqr1XjHqU2ajMvmgp6c-52" target="wUqr1XjHqU2ajMvmgp6c-4" edge="1">
          <mxGeometry width="160" relative="1" as="geometry">
            <mxPoint x="100" y="1100" as="sourcePoint" />
            <mxPoint x="260" y="1100" as="targetPoint" />
          </mxGeometry>
        </mxCell>
        <mxCell id="wUqr1XjHqU2ajMvmgp6c-64" value="&lt;b&gt;&amp;lt;&amp;lt;interface&amp;gt;&amp;gt;&lt;br&gt;StudentManagerDAO&lt;/b&gt;" style="swimlane;fontStyle=0;childLayout=stackLayout;horizontal=1;startSize=37;fillColor=none;horizontalStack=0;resizeParent=1;resizeParentMax=0;resizeLast=0;collapsible=1;marginBottom=0;whiteSpace=wrap;html=1;" parent="1" vertex="1">
          <mxGeometry x="-130" y="1030" width="290" height="297" as="geometry" />
        </mxCell>
        <mxCell id="wUqr1XjHqU2ajMvmgp6c-65" value="+ findAll(): List&amp;lt;Student&amp;gt;" style="text;strokeColor=none;fillColor=none;align=left;verticalAlign=top;spacingLeft=4;spacingRight=4;overflow=hidden;rotatable=0;points=[[0,0.5],[1,0.5]];portConstraint=eastwest;whiteSpace=wrap;html=1;" parent="wUqr1XjHqU2ajMvmgp6c-64" vertex="1">
          <mxGeometry y="37" width="290" height="26" as="geometry" />
        </mxCell>
        <mxCell id="wUqr1XjHqU2ajMvmgp6c-66" value="+ findPage(int page, int size): Pagination&amp;lt;Student&amp;gt;" style="text;strokeColor=none;fillColor=none;align=left;verticalAlign=top;spacingLeft=4;spacingRight=4;overflow=hidden;rotatable=0;points=[[0,0.5],[1,0.5]];portConstraint=eastwest;whiteSpace=wrap;html=1;" parent="wUqr1XjHqU2ajMvmgp6c-64" vertex="1">
          <mxGeometry y="63" width="290" height="26" as="geometry" />
        </mxCell>
        <mxCell id="wUqr1XjHqU2ajMvmgp6c-67" value="+ delete(Student student):boolean" style="text;strokeColor=none;fillColor=none;align=left;verticalAlign=top;spacingLeft=4;spacingRight=4;overflow=hidden;rotatable=0;points=[[0,0.5],[1,0.5]];portConstraint=eastwest;whiteSpace=wrap;html=1;" parent="wUqr1XjHqU2ajMvmgp6c-64" vertex="1">
          <mxGeometry y="89" width="290" height="26" as="geometry" />
        </mxCell>
        <mxCell id="wUqr1XjHqU2ajMvmgp6c-68" value="+ update(Student student: boolean" style="text;strokeColor=none;fillColor=none;align=left;verticalAlign=top;spacingLeft=4;spacingRight=4;overflow=hidden;rotatable=0;points=[[0,0.5],[1,0.5]];portConstraint=eastwest;whiteSpace=wrap;html=1;" parent="wUqr1XjHqU2ajMvmgp6c-64" vertex="1">
          <mxGeometry y="115" width="290" height="26" as="geometry" />
        </mxCell>
        <mxCell id="wUqr1XjHqU2ajMvmgp6c-69" value="+ save(Student student): boolean" style="text;strokeColor=none;fillColor=none;align=left;verticalAlign=top;spacingLeft=4;spacingRight=4;overflow=hidden;rotatable=0;points=[[0,0.5],[1,0.5]];portConstraint=eastwest;whiteSpace=wrap;html=1;" parent="wUqr1XjHqU2ajMvmgp6c-64" vertex="1">
          <mxGeometry y="141" width="290" height="26" as="geometry" />
        </mxCell>
        <mxCell id="wUqr1XjHqU2ajMvmgp6c-70" value="+ save(Student student): boolean" style="text;strokeColor=none;fillColor=none;align=left;verticalAlign=top;spacingLeft=4;spacingRight=4;overflow=hidden;rotatable=0;points=[[0,0.5],[1,0.5]];portConstraint=eastwest;whiteSpace=wrap;html=1;" parent="wUqr1XjHqU2ajMvmgp6c-64" vertex="1">
          <mxGeometry y="167" width="290" height="26" as="geometry" />
        </mxCell>
        <mxCell id="wUqr1XjHqU2ajMvmgp6c-71" value="+ sortStudentByName(): boolean" style="text;strokeColor=none;fillColor=none;align=left;verticalAlign=top;spacingLeft=4;spacingRight=4;overflow=hidden;rotatable=0;points=[[0,0.5],[1,0.5]];portConstraint=eastwest;whiteSpace=wrap;html=1;" parent="wUqr1XjHqU2ajMvmgp6c-64" vertex="1">
          <mxGeometry y="193" width="290" height="26" as="geometry" />
        </mxCell>
        <mxCell id="wUqr1XjHqU2ajMvmgp6c-72" value="+ sortStudentByEmail(): boolean" style="text;strokeColor=none;fillColor=none;align=left;verticalAlign=top;spacingLeft=4;spacingRight=4;overflow=hidden;rotatable=0;points=[[0,0.5],[1,0.5]];portConstraint=eastwest;whiteSpace=wrap;html=1;" parent="wUqr1XjHqU2ajMvmgp6c-64" vertex="1">
          <mxGeometry y="219" width="290" height="26" as="geometry" />
        </mxCell>
        <mxCell id="wUqr1XjHqU2ajMvmgp6c-73" value="+ findStudentByName(String name): Student" style="text;strokeColor=none;fillColor=none;align=left;verticalAlign=top;spacingLeft=4;spacingRight=4;overflow=hidden;rotatable=0;points=[[0,0.5],[1,0.5]];portConstraint=eastwest;whiteSpace=wrap;html=1;" parent="wUqr1XjHqU2ajMvmgp6c-64" vertex="1">
          <mxGeometry y="245" width="290" height="26" as="geometry" />
        </mxCell>
        <mxCell id="wUqr1XjHqU2ajMvmgp6c-74" value="+ findStudentByEmail(String email): Student" style="text;strokeColor=none;fillColor=none;align=left;verticalAlign=top;spacingLeft=4;spacingRight=4;overflow=hidden;rotatable=0;points=[[0,0.5],[1,0.5]];portConstraint=eastwest;whiteSpace=wrap;html=1;" parent="wUqr1XjHqU2ajMvmgp6c-64" vertex="1">
          <mxGeometry y="271" width="290" height="26" as="geometry" />
        </mxCell>
        <mxCell id="wUqr1XjHqU2ajMvmgp6c-75" value="StudentManagerDAOImp" style="swimlane;fontStyle=0;childLayout=stackLayout;horizontal=1;startSize=30;fillColor=none;horizontalStack=0;resizeParent=1;resizeParentMax=0;resizeLast=0;collapsible=1;marginBottom=0;whiteSpace=wrap;html=1;" parent="1" vertex="1">
          <mxGeometry x="-130" y="683" width="290" height="290" as="geometry" />
        </mxCell>
        <mxCell id="wUqr1XjHqU2ajMvmgp6c-76" value="+ findAll(): List&amp;lt;Student&amp;gt;" style="text;strokeColor=none;fillColor=none;align=left;verticalAlign=top;spacingLeft=4;spacingRight=4;overflow=hidden;rotatable=0;points=[[0,0.5],[1,0.5]];portConstraint=eastwest;whiteSpace=wrap;html=1;" parent="wUqr1XjHqU2ajMvmgp6c-75" vertex="1">
          <mxGeometry y="30" width="290" height="26" as="geometry" />
        </mxCell>
        <mxCell id="wUqr1XjHqU2ajMvmgp6c-77" value="+ findPage(int page, int size): Pagination&amp;lt;Student&amp;gt;" style="text;strokeColor=none;fillColor=none;align=left;verticalAlign=top;spacingLeft=4;spacingRight=4;overflow=hidden;rotatable=0;points=[[0,0.5],[1,0.5]];portConstraint=eastwest;whiteSpace=wrap;html=1;" parent="wUqr1XjHqU2ajMvmgp6c-75" vertex="1">
          <mxGeometry y="56" width="290" height="26" as="geometry" />
        </mxCell>
        <mxCell id="wUqr1XjHqU2ajMvmgp6c-78" value="+ delete(Student student):boolean" style="text;strokeColor=none;fillColor=none;align=left;verticalAlign=top;spacingLeft=4;spacingRight=4;overflow=hidden;rotatable=0;points=[[0,0.5],[1,0.5]];portConstraint=eastwest;whiteSpace=wrap;html=1;" parent="wUqr1XjHqU2ajMvmgp6c-75" vertex="1">
          <mxGeometry y="82" width="290" height="26" as="geometry" />
        </mxCell>
        <mxCell id="wUqr1XjHqU2ajMvmgp6c-79" value="+ update(Student student: boolean" style="text;strokeColor=none;fillColor=none;align=left;verticalAlign=top;spacingLeft=4;spacingRight=4;overflow=hidden;rotatable=0;points=[[0,0.5],[1,0.5]];portConstraint=eastwest;whiteSpace=wrap;html=1;" parent="wUqr1XjHqU2ajMvmgp6c-75" vertex="1">
          <mxGeometry y="108" width="290" height="26" as="geometry" />
        </mxCell>
        <mxCell id="wUqr1XjHqU2ajMvmgp6c-80" value="+ save(Student student): boolean" style="text;strokeColor=none;fillColor=none;align=left;verticalAlign=top;spacingLeft=4;spacingRight=4;overflow=hidden;rotatable=0;points=[[0,0.5],[1,0.5]];portConstraint=eastwest;whiteSpace=wrap;html=1;" parent="wUqr1XjHqU2ajMvmgp6c-75" vertex="1">
          <mxGeometry y="134" width="290" height="26" as="geometry" />
        </mxCell>
        <mxCell id="wUqr1XjHqU2ajMvmgp6c-81" value="+ save(Student student): boolean" style="text;strokeColor=none;fillColor=none;align=left;verticalAlign=top;spacingLeft=4;spacingRight=4;overflow=hidden;rotatable=0;points=[[0,0.5],[1,0.5]];portConstraint=eastwest;whiteSpace=wrap;html=1;" parent="wUqr1XjHqU2ajMvmgp6c-75" vertex="1">
          <mxGeometry y="160" width="290" height="26" as="geometry" />
        </mxCell>
        <mxCell id="wUqr1XjHqU2ajMvmgp6c-82" value="+ sortStudentByName(): boolean" style="text;strokeColor=none;fillColor=none;align=left;verticalAlign=top;spacingLeft=4;spacingRight=4;overflow=hidden;rotatable=0;points=[[0,0.5],[1,0.5]];portConstraint=eastwest;whiteSpace=wrap;html=1;" parent="wUqr1XjHqU2ajMvmgp6c-75" vertex="1">
          <mxGeometry y="186" width="290" height="26" as="geometry" />
        </mxCell>
        <mxCell id="wUqr1XjHqU2ajMvmgp6c-83" value="+ sortStudentByEmail(): boolean" style="text;strokeColor=none;fillColor=none;align=left;verticalAlign=top;spacingLeft=4;spacingRight=4;overflow=hidden;rotatable=0;points=[[0,0.5],[1,0.5]];portConstraint=eastwest;whiteSpace=wrap;html=1;" parent="wUqr1XjHqU2ajMvmgp6c-75" vertex="1">
          <mxGeometry y="212" width="290" height="26" as="geometry" />
        </mxCell>
        <mxCell id="wUqr1XjHqU2ajMvmgp6c-84" value="+ findStudentByName(String name): Student" style="text;strokeColor=none;fillColor=none;align=left;verticalAlign=top;spacingLeft=4;spacingRight=4;overflow=hidden;rotatable=0;points=[[0,0.5],[1,0.5]];portConstraint=eastwest;whiteSpace=wrap;html=1;" parent="wUqr1XjHqU2ajMvmgp6c-75" vertex="1">
          <mxGeometry y="238" width="290" height="26" as="geometry" />
        </mxCell>
        <mxCell id="wUqr1XjHqU2ajMvmgp6c-85" value="+ findStudentByEmail(String email): Student" style="text;strokeColor=none;fillColor=none;align=left;verticalAlign=top;spacingLeft=4;spacingRight=4;overflow=hidden;rotatable=0;points=[[0,0.5],[1,0.5]];portConstraint=eastwest;whiteSpace=wrap;html=1;" parent="wUqr1XjHqU2ajMvmgp6c-75" vertex="1">
          <mxGeometry y="264" width="290" height="26" as="geometry" />
        </mxCell>
        <mxCell id="wUqr1XjHqU2ajMvmgp6c-86" value="" style="endArrow=block;dashed=1;endFill=0;endSize=12;html=1;rounded=0;" parent="1" source="wUqr1XjHqU2ajMvmgp6c-75" target="wUqr1XjHqU2ajMvmgp6c-64" edge="1">
          <mxGeometry width="160" relative="1" as="geometry">
            <mxPoint x="-210" y="1100" as="sourcePoint" />
            <mxPoint x="-50" y="1100" as="targetPoint" />
          </mxGeometry>
        </mxCell>
        <mxCell id="wUqr1XjHqU2ajMvmgp6c-88" value="" style="endArrow=open;endFill=1;endSize=12;html=1;rounded=0;" parent="1" source="wUqr1XjHqU2ajMvmgp6c-64" target="wUqr1XjHqU2ajMvmgp6c-52" edge="1">
          <mxGeometry width="160" relative="1" as="geometry">
            <mxPoint x="120" y="1190" as="sourcePoint" />
            <mxPoint x="280" y="1190" as="targetPoint" />
          </mxGeometry>
        </mxCell>
        <mxCell id="vNxBG4lUaGmJ6MviOZO6-1" value="&lt;div&gt;&lt;b&gt;&amp;lt;&amp;lt;interface&amp;gt;&amp;gt;&lt;/b&gt;&lt;/div&gt;&lt;b&gt;EnrollmentManagerDAO&lt;/b&gt;" style="swimlane;fontStyle=0;childLayout=stackLayout;horizontal=1;startSize=50;fillColor=none;horizontalStack=0;resizeParent=1;resizeParentMax=0;resizeLast=0;collapsible=1;marginBottom=0;whiteSpace=wrap;html=1;" parent="1" vertex="1">
          <mxGeometry x="830" y="220" width="370" height="128" as="geometry" />
        </mxCell>
        <mxCell id="vNxBG4lUaGmJ6MviOZO6-2" value="+ displayStudentByCourse(): List&amp;lt;Enrollment&amp;gt;" style="text;strokeColor=none;fillColor=none;align=left;verticalAlign=top;spacingLeft=4;spacingRight=4;overflow=hidden;rotatable=0;points=[[0,0.5],[1,0.5]];portConstraint=eastwest;whiteSpace=wrap;html=1;" parent="vNxBG4lUaGmJ6MviOZO6-1" vertex="1">
          <mxGeometry y="50" width="370" height="26" as="geometry" />
        </mxCell>
        <mxCell id="vNxBG4lUaGmJ6MviOZO6-3" value="+ addStudentToCourse(String studentId, String courseId): boolean" style="text;strokeColor=none;fillColor=none;align=left;verticalAlign=top;spacingLeft=4;spacingRight=4;overflow=hidden;rotatable=0;points=[[0,0.5],[1,0.5]];portConstraint=eastwest;whiteSpace=wrap;html=1;" parent="vNxBG4lUaGmJ6MviOZO6-1" vertex="1">
          <mxGeometry y="76" width="370" height="26" as="geometry" />
        </mxCell>
        <mxCell id="vNxBG4lUaGmJ6MviOZO6-4" value="+ deleteStudentFromCourse(String studentId): boolean" style="text;strokeColor=none;fillColor=none;align=left;verticalAlign=top;spacingLeft=4;spacingRight=4;overflow=hidden;rotatable=0;points=[[0,0.5],[1,0.5]];portConstraint=eastwest;whiteSpace=wrap;html=1;" parent="vNxBG4lUaGmJ6MviOZO6-1" vertex="1">
          <mxGeometry y="102" width="370" height="26" as="geometry" />
        </mxCell>
        <mxCell id="vNxBG4lUaGmJ6MviOZO6-10" value="&lt;div&gt;&lt;span style=&quot;background-color: transparent; color: light-dark(rgb(0, 0, 0), rgb(255, 255, 255));&quot;&gt;EnrollmentManagerDAOImp&lt;/span&gt;&lt;/div&gt;" style="swimlane;fontStyle=0;childLayout=stackLayout;horizontal=1;startSize=50;fillColor=none;horizontalStack=0;resizeParent=1;resizeParentMax=0;resizeLast=0;collapsible=1;marginBottom=0;whiteSpace=wrap;html=1;" parent="1" vertex="1">
          <mxGeometry x="740" y="62" width="370" height="128" as="geometry" />
        </mxCell>
        <mxCell id="vNxBG4lUaGmJ6MviOZO6-11" value="+ displayStudentByCourse(): List&amp;lt;Enrollment&amp;gt;" style="text;strokeColor=none;fillColor=none;align=left;verticalAlign=top;spacingLeft=4;spacingRight=4;overflow=hidden;rotatable=0;points=[[0,0.5],[1,0.5]];portConstraint=eastwest;whiteSpace=wrap;html=1;" parent="vNxBG4lUaGmJ6MviOZO6-10" vertex="1">
          <mxGeometry y="50" width="370" height="26" as="geometry" />
        </mxCell>
        <mxCell id="vNxBG4lUaGmJ6MviOZO6-12" value="+ addStudentToCourse(String studentId, String courseId): boolean" style="text;strokeColor=none;fillColor=none;align=left;verticalAlign=top;spacingLeft=4;spacingRight=4;overflow=hidden;rotatable=0;points=[[0,0.5],[1,0.5]];portConstraint=eastwest;whiteSpace=wrap;html=1;" parent="vNxBG4lUaGmJ6MviOZO6-10" vertex="1">
          <mxGeometry y="76" width="370" height="26" as="geometry" />
        </mxCell>
        <mxCell id="vNxBG4lUaGmJ6MviOZO6-13" value="+ deleteStudentFromCourse(String studentId): boolean" style="text;strokeColor=none;fillColor=none;align=left;verticalAlign=top;spacingLeft=4;spacingRight=4;overflow=hidden;rotatable=0;points=[[0,0.5],[1,0.5]];portConstraint=eastwest;whiteSpace=wrap;html=1;" parent="vNxBG4lUaGmJ6MviOZO6-10" vertex="1">
          <mxGeometry y="102" width="370" height="26" as="geometry" />
        </mxCell>
        <mxCell id="vNxBG4lUaGmJ6MviOZO6-14" value="" style="endArrow=block;dashed=1;endFill=0;endSize=12;html=1;rounded=0;" parent="1" source="vNxBG4lUaGmJ6MviOZO6-10" target="vNxBG4lUaGmJ6MviOZO6-1" edge="1">
          <mxGeometry width="160" relative="1" as="geometry">
            <mxPoint x="810" y="40" as="sourcePoint" />
            <mxPoint x="970" y="40" as="targetPoint" />
          </mxGeometry>
        </mxCell>
        <mxCell id="vNxBG4lUaGmJ6MviOZO6-15" value="&lt;div&gt;&lt;b&gt;&amp;lt;&amp;lt;interface&amp;gt;&amp;gt;&lt;/b&gt;&lt;/div&gt;&lt;b&gt;EnrollmentManagerDAO&lt;/b&gt;" style="swimlane;fontStyle=0;childLayout=stackLayout;horizontal=1;startSize=50;fillColor=none;horizontalStack=0;resizeParent=1;resizeParentMax=0;resizeLast=0;collapsible=1;marginBottom=0;whiteSpace=wrap;html=1;" parent="1" vertex="1">
          <mxGeometry x="1140" y="62" width="370" height="128" as="geometry" />
        </mxCell>
        <mxCell id="vNxBG4lUaGmJ6MviOZO6-16" value="+ displayStudentByCourse(): List&amp;lt;Enrollment&amp;gt;" style="text;strokeColor=none;fillColor=none;align=left;verticalAlign=top;spacingLeft=4;spacingRight=4;overflow=hidden;rotatable=0;points=[[0,0.5],[1,0.5]];portConstraint=eastwest;whiteSpace=wrap;html=1;" parent="vNxBG4lUaGmJ6MviOZO6-15" vertex="1">
          <mxGeometry y="50" width="370" height="26" as="geometry" />
        </mxCell>
        <mxCell id="vNxBG4lUaGmJ6MviOZO6-17" value="+ addStudentToCourse(String studentId, String courseId): boolean" style="text;strokeColor=none;fillColor=none;align=left;verticalAlign=top;spacingLeft=4;spacingRight=4;overflow=hidden;rotatable=0;points=[[0,0.5],[1,0.5]];portConstraint=eastwest;whiteSpace=wrap;html=1;" parent="vNxBG4lUaGmJ6MviOZO6-15" vertex="1">
          <mxGeometry y="76" width="370" height="26" as="geometry" />
        </mxCell>
        <mxCell id="vNxBG4lUaGmJ6MviOZO6-18" value="+ deleteStudentFromCourse(String studentId): boolean" style="text;strokeColor=none;fillColor=none;align=left;verticalAlign=top;spacingLeft=4;spacingRight=4;overflow=hidden;rotatable=0;points=[[0,0.5],[1,0.5]];portConstraint=eastwest;whiteSpace=wrap;html=1;" parent="vNxBG4lUaGmJ6MviOZO6-15" vertex="1">
          <mxGeometry y="102" width="370" height="26" as="geometry" />
        </mxCell>
        <mxCell id="vNxBG4lUaGmJ6MviOZO6-19" value="&lt;div&gt;&lt;span style=&quot;background-color: transparent; color: light-dark(rgb(0, 0, 0), rgb(255, 255, 255));&quot;&gt;EnrollmentManagerDAOImp&lt;/span&gt;&lt;/div&gt;" style="swimlane;fontStyle=0;childLayout=stackLayout;horizontal=1;startSize=50;fillColor=none;horizontalStack=0;resizeParent=1;resizeParentMax=0;resizeLast=0;collapsible=1;marginBottom=0;whiteSpace=wrap;html=1;" parent="1" vertex="1">
          <mxGeometry x="1210" y="220" width="370" height="128" as="geometry" />
        </mxCell>
        <mxCell id="vNxBG4lUaGmJ6MviOZO6-20" value="+ displayStudentByCourse(): List&amp;lt;Enrollment&amp;gt;" style="text;strokeColor=none;fillColor=none;align=left;verticalAlign=top;spacingLeft=4;spacingRight=4;overflow=hidden;rotatable=0;points=[[0,0.5],[1,0.5]];portConstraint=eastwest;whiteSpace=wrap;html=1;" parent="vNxBG4lUaGmJ6MviOZO6-19" vertex="1">
          <mxGeometry y="50" width="370" height="26" as="geometry" />
        </mxCell>
        <mxCell id="vNxBG4lUaGmJ6MviOZO6-21" value="+ addStudentToCourse(String studentId, String courseId): boolean" style="text;strokeColor=none;fillColor=none;align=left;verticalAlign=top;spacingLeft=4;spacingRight=4;overflow=hidden;rotatable=0;points=[[0,0.5],[1,0.5]];portConstraint=eastwest;whiteSpace=wrap;html=1;" parent="vNxBG4lUaGmJ6MviOZO6-19" vertex="1">
          <mxGeometry y="76" width="370" height="26" as="geometry" />
        </mxCell>
        <mxCell id="vNxBG4lUaGmJ6MviOZO6-22" value="+ deleteStudentFromCourse(String studentId): boolean" style="text;strokeColor=none;fillColor=none;align=left;verticalAlign=top;spacingLeft=4;spacingRight=4;overflow=hidden;rotatable=0;points=[[0,0.5],[1,0.5]];portConstraint=eastwest;whiteSpace=wrap;html=1;" parent="vNxBG4lUaGmJ6MviOZO6-19" vertex="1">
          <mxGeometry y="102" width="370" height="26" as="geometry" />
        </mxCell>
        <mxCell id="vNxBG4lUaGmJ6MviOZO6-23" value="" style="endArrow=block;dashed=1;endFill=0;endSize=12;html=1;rounded=0;" parent="1" source="vNxBG4lUaGmJ6MviOZO6-19" target="vNxBG4lUaGmJ6MviOZO6-15" edge="1">
          <mxGeometry width="160" relative="1" as="geometry">
            <mxPoint x="1250" y="40" as="sourcePoint" />
            <mxPoint x="1410" y="40" as="targetPoint" />
          </mxGeometry>
        </mxCell>
        <mxCell id="vNxBG4lUaGmJ6MviOZO6-24" value="" style="endArrow=open;endFill=1;endSize=12;html=1;rounded=0;" parent="1" source="vNxBG4lUaGmJ6MviOZO6-15" target="vNxBG4lUaGmJ6MviOZO6-10" edge="1">
          <mxGeometry width="160" relative="1" as="geometry">
            <mxPoint x="1380" y="10" as="sourcePoint" />
            <mxPoint x="1540" y="10" as="targetPoint" />
          </mxGeometry>
        </mxCell>
        <mxCell id="vNxBG4lUaGmJ6MviOZO6-25" value="" style="endArrow=open;endFill=1;endSize=12;html=1;rounded=0;" parent="1" source="vNxBG4lUaGmJ6MviOZO6-1" target="MJI2ajQQupjb3d7geVpr-14" edge="1">
          <mxGeometry width="160" relative="1" as="geometry">
            <mxPoint x="1250" y="410" as="sourcePoint" />
            <mxPoint x="1410" y="410" as="targetPoint" />
          </mxGeometry>
        </mxCell>
        <mxCell id="vNxBG4lUaGmJ6MviOZO6-28" value="" style="endArrow=open;endFill=1;endSize=12;html=1;rounded=0;" parent="1" source="MJI2ajQQupjb3d7geVpr-14" target="MJI2ajQQupjb3d7geVpr-5" edge="1">
          <mxGeometry width="160" relative="1" as="geometry">
            <mxPoint x="840" y="520" as="sourcePoint" />
            <mxPoint x="1000" y="520" as="targetPoint" />
          </mxGeometry>
        </mxCell>
        <mxCell id="vNxBG4lUaGmJ6MviOZO6-29" value="" style="endArrow=open;endFill=1;endSize=12;html=1;rounded=0;" parent="1" source="MJI2ajQQupjb3d7geVpr-14" target="Q_YXP4lk02ADxKYNfTab-8" edge="1">
          <mxGeometry width="160" relative="1" as="geometry">
            <mxPoint x="870" y="490" as="sourcePoint" />
            <mxPoint x="1030" y="490" as="targetPoint" />
          </mxGeometry>
        </mxCell>
        <mxCell id="vNxBG4lUaGmJ6MviOZO6-31" value="Extends" style="endArrow=block;endSize=16;endFill=0;html=1;rounded=0;" parent="1" source="wUqr1XjHqU2ajMvmgp6c-4" target="LlLVabDBCQFJk6Uj2uY--1" edge="1">
          <mxGeometry width="160" relative="1" as="geometry">
            <mxPoint x="540" y="690" as="sourcePoint" />
            <mxPoint x="700" y="690" as="targetPoint" />
          </mxGeometry>
        </mxCell>
        <mxCell id="vNxBG4lUaGmJ6MviOZO6-32" value="Extends" style="endArrow=block;endSize=16;endFill=0;html=1;rounded=0;" parent="1" source="zlpquRdz48AsANumm2sr-37" target="LlLVabDBCQFJk6Uj2uY--1" edge="1">
          <mxGeometry width="160" relative="1" as="geometry">
            <mxPoint x="480" y="770" as="sourcePoint" />
            <mxPoint x="711" y="638" as="targetPoint" />
          </mxGeometry>
        </mxCell>
        <mxCell id="vNxBG4lUaGmJ6MviOZO6-35" value="&lt;div&gt;&amp;lt;&amp;lt;interface&amp;gt;&amp;gt;&lt;/div&gt;StatiticsManagerDAO" style="swimlane;fontStyle=1;align=center;verticalAlign=top;childLayout=stackLayout;horizontal=1;startSize=38;horizontalStack=0;resizeParent=1;resizeParentMax=0;resizeLast=0;collapsible=1;marginBottom=0;whiteSpace=wrap;html=1;" parent="1" vertex="1">
          <mxGeometry x="-180" y="322" width="310" height="116" as="geometry" />
        </mxCell>
        <mxCell id="vNxBG4lUaGmJ6MviOZO6-39" value="&lt;div&gt;getTotalCoursesAndStudents(): Map&amp;lt;String, Integer&amp;gt;&lt;/div&gt;" style="text;strokeColor=none;fillColor=none;align=left;verticalAlign=top;spacingLeft=4;spacingRight=4;overflow=hidden;rotatable=0;points=[[0,0.5],[1,0.5]];portConstraint=eastwest;whiteSpace=wrap;html=1;" parent="vNxBG4lUaGmJ6MviOZO6-35" vertex="1">
          <mxGeometry y="38" width="310" height="26" as="geometry" />
        </mxCell>
        <mxCell id="vNxBG4lUaGmJ6MviOZO6-40" value="&lt;div&gt;getStudentsByCourse():&amp;nbsp;&lt;span style=&quot;background-color: transparent; color: light-dark(rgb(0, 0, 0), rgb(255, 255, 255));&quot;&gt;Map&amp;lt;Course, List&amp;lt;Student&amp;gt;&amp;gt;&lt;/span&gt;&lt;/div&gt;" style="text;strokeColor=none;fillColor=none;align=left;verticalAlign=top;spacingLeft=4;spacingRight=4;overflow=hidden;rotatable=0;points=[[0,0.5],[1,0.5]];portConstraint=eastwest;whiteSpace=wrap;html=1;" parent="vNxBG4lUaGmJ6MviOZO6-35" vertex="1">
          <mxGeometry y="64" width="310" height="26" as="geometry" />
        </mxCell>
        <mxCell id="vNxBG4lUaGmJ6MviOZO6-41" value="&lt;div&gt;getTop5CoursesByStudentCount():&amp;nbsp;&lt;span style=&quot;background-color: transparent; color: light-dark(rgb(0, 0, 0), rgb(255, 255, 255));&quot;&gt;List&amp;lt;Course&amp;gt;&lt;/span&gt;&lt;/div&gt;" style="text;strokeColor=none;fillColor=none;align=left;verticalAlign=top;spacingLeft=4;spacingRight=4;overflow=hidden;rotatable=0;points=[[0,0.5],[1,0.5]];portConstraint=eastwest;whiteSpace=wrap;html=1;" parent="vNxBG4lUaGmJ6MviOZO6-35" vertex="1">
          <mxGeometry y="90" width="310" height="26" as="geometry" />
        </mxCell>
        <mxCell id="vNxBG4lUaGmJ6MviOZO6-42" value="&lt;div&gt;&lt;span style=&quot;font-weight: normal; background-color: transparent; color: light-dark(rgb(0, 0, 0), rgb(255, 255, 255));&quot;&gt;StatiticsManagerDAOImp&lt;/span&gt;&lt;/div&gt;" style="swimlane;fontStyle=1;align=center;verticalAlign=top;childLayout=stackLayout;horizontal=1;startSize=30;horizontalStack=0;resizeParent=1;resizeParentMax=0;resizeLast=0;collapsible=1;marginBottom=0;whiteSpace=wrap;html=1;" parent="1" vertex="1">
          <mxGeometry x="-180" y="490" width="310" height="108" as="geometry" />
        </mxCell>
        <mxCell id="vNxBG4lUaGmJ6MviOZO6-43" value="&lt;div&gt;getTotalCoursesAndStudents(): Map&amp;lt;String, Integer&amp;gt;&lt;/div&gt;" style="text;strokeColor=none;fillColor=none;align=left;verticalAlign=top;spacingLeft=4;spacingRight=4;overflow=hidden;rotatable=0;points=[[0,0.5],[1,0.5]];portConstraint=eastwest;whiteSpace=wrap;html=1;" parent="vNxBG4lUaGmJ6MviOZO6-42" vertex="1">
          <mxGeometry y="30" width="310" height="26" as="geometry" />
        </mxCell>
        <mxCell id="vNxBG4lUaGmJ6MviOZO6-44" value="&lt;div&gt;getStudentsByCourse():&amp;nbsp;&lt;span style=&quot;background-color: transparent; color: light-dark(rgb(0, 0, 0), rgb(255, 255, 255));&quot;&gt;Map&amp;lt;Course, List&amp;lt;Student&amp;gt;&amp;gt;&lt;/span&gt;&lt;/div&gt;" style="text;strokeColor=none;fillColor=none;align=left;verticalAlign=top;spacingLeft=4;spacingRight=4;overflow=hidden;rotatable=0;points=[[0,0.5],[1,0.5]];portConstraint=eastwest;whiteSpace=wrap;html=1;" parent="vNxBG4lUaGmJ6MviOZO6-42" vertex="1">
          <mxGeometry y="56" width="310" height="26" as="geometry" />
        </mxCell>
        <mxCell id="vNxBG4lUaGmJ6MviOZO6-45" value="&lt;div&gt;getTop5CoursesByStudentCount():&amp;nbsp;&lt;span style=&quot;background-color: transparent; color: light-dark(rgb(0, 0, 0), rgb(255, 255, 255));&quot;&gt;List&amp;lt;Course&amp;gt;&lt;/span&gt;&lt;/div&gt;" style="text;strokeColor=none;fillColor=none;align=left;verticalAlign=top;spacingLeft=4;spacingRight=4;overflow=hidden;rotatable=0;points=[[0,0.5],[1,0.5]];portConstraint=eastwest;whiteSpace=wrap;html=1;" parent="vNxBG4lUaGmJ6MviOZO6-42" vertex="1">
          <mxGeometry y="82" width="310" height="26" as="geometry" />
        </mxCell>
        <mxCell id="vNxBG4lUaGmJ6MviOZO6-46" value="" style="endArrow=block;dashed=1;endFill=0;endSize=12;html=1;rounded=0;" parent="1" source="vNxBG4lUaGmJ6MviOZO6-42" target="vNxBG4lUaGmJ6MviOZO6-35" edge="1">
          <mxGeometry width="160" relative="1" as="geometry">
            <mxPoint x="-340" y="680" as="sourcePoint" />
            <mxPoint x="-180" y="680" as="targetPoint" />
          </mxGeometry>
        </mxCell>
        <mxCell id="vNxBG4lUaGmJ6MviOZO6-47" value="&lt;div&gt;&amp;lt;&amp;lt;interface&amp;gt;&amp;gt;&lt;/div&gt;StatiticsManagerService" style="swimlane;fontStyle=1;align=center;verticalAlign=top;childLayout=stackLayout;horizontal=1;startSize=38;horizontalStack=0;resizeParent=1;resizeParentMax=0;resizeLast=0;collapsible=1;marginBottom=0;whiteSpace=wrap;html=1;" parent="1" vertex="1">
          <mxGeometry x="-540" y="482" width="310" height="116" as="geometry" />
        </mxCell>
        <mxCell id="vNxBG4lUaGmJ6MviOZO6-48" value="&lt;div&gt;getTotalCoursesAndStudents(): Map&amp;lt;String, Integer&amp;gt;&lt;/div&gt;" style="text;strokeColor=none;fillColor=none;align=left;verticalAlign=top;spacingLeft=4;spacingRight=4;overflow=hidden;rotatable=0;points=[[0,0.5],[1,0.5]];portConstraint=eastwest;whiteSpace=wrap;html=1;" parent="vNxBG4lUaGmJ6MviOZO6-47" vertex="1">
          <mxGeometry y="38" width="310" height="26" as="geometry" />
        </mxCell>
        <mxCell id="vNxBG4lUaGmJ6MviOZO6-49" value="&lt;div&gt;getStudentsByCourse():&amp;nbsp;&lt;span style=&quot;background-color: transparent; color: light-dark(rgb(0, 0, 0), rgb(255, 255, 255));&quot;&gt;Map&amp;lt;Course, List&amp;lt;Student&amp;gt;&amp;gt;&lt;/span&gt;&lt;/div&gt;" style="text;strokeColor=none;fillColor=none;align=left;verticalAlign=top;spacingLeft=4;spacingRight=4;overflow=hidden;rotatable=0;points=[[0,0.5],[1,0.5]];portConstraint=eastwest;whiteSpace=wrap;html=1;" parent="vNxBG4lUaGmJ6MviOZO6-47" vertex="1">
          <mxGeometry y="64" width="310" height="26" as="geometry" />
        </mxCell>
        <mxCell id="vNxBG4lUaGmJ6MviOZO6-50" value="&lt;div&gt;getTop5CoursesByStudentCount():&amp;nbsp;&lt;span style=&quot;background-color: transparent; color: light-dark(rgb(0, 0, 0), rgb(255, 255, 255));&quot;&gt;List&amp;lt;Course&amp;gt;&lt;/span&gt;&lt;/div&gt;" style="text;strokeColor=none;fillColor=none;align=left;verticalAlign=top;spacingLeft=4;spacingRight=4;overflow=hidden;rotatable=0;points=[[0,0.5],[1,0.5]];portConstraint=eastwest;whiteSpace=wrap;html=1;" parent="vNxBG4lUaGmJ6MviOZO6-47" vertex="1">
          <mxGeometry y="90" width="310" height="26" as="geometry" />
        </mxCell>
        <mxCell id="vNxBG4lUaGmJ6MviOZO6-51" value="&lt;div&gt;&lt;span style=&quot;font-weight: normal; background-color: transparent; color: light-dark(rgb(0, 0, 0), rgb(255, 255, 255));&quot;&gt;StatiticsManagerServiceImp&lt;/span&gt;&lt;/div&gt;" style="swimlane;fontStyle=1;align=center;verticalAlign=top;childLayout=stackLayout;horizontal=1;startSize=30;horizontalStack=0;resizeParent=1;resizeParentMax=0;resizeLast=0;collapsible=1;marginBottom=0;whiteSpace=wrap;html=1;" parent="1" vertex="1">
          <mxGeometry x="-540" y="322" width="310" height="108" as="geometry" />
        </mxCell>
        <mxCell id="vNxBG4lUaGmJ6MviOZO6-52" value="&lt;div&gt;getTotalCoursesAndStudents(): Map&amp;lt;String, Integer&amp;gt;&lt;/div&gt;" style="text;strokeColor=none;fillColor=none;align=left;verticalAlign=top;spacingLeft=4;spacingRight=4;overflow=hidden;rotatable=0;points=[[0,0.5],[1,0.5]];portConstraint=eastwest;whiteSpace=wrap;html=1;" parent="vNxBG4lUaGmJ6MviOZO6-51" vertex="1">
          <mxGeometry y="30" width="310" height="26" as="geometry" />
        </mxCell>
        <mxCell id="vNxBG4lUaGmJ6MviOZO6-53" value="&lt;div&gt;getStudentsByCourse():&amp;nbsp;&lt;span style=&quot;background-color: transparent; color: light-dark(rgb(0, 0, 0), rgb(255, 255, 255));&quot;&gt;Map&amp;lt;Course, List&amp;lt;Student&amp;gt;&amp;gt;&lt;/span&gt;&lt;/div&gt;" style="text;strokeColor=none;fillColor=none;align=left;verticalAlign=top;spacingLeft=4;spacingRight=4;overflow=hidden;rotatable=0;points=[[0,0.5],[1,0.5]];portConstraint=eastwest;whiteSpace=wrap;html=1;" parent="vNxBG4lUaGmJ6MviOZO6-51" vertex="1">
          <mxGeometry y="56" width="310" height="26" as="geometry" />
        </mxCell>
        <mxCell id="vNxBG4lUaGmJ6MviOZO6-54" value="&lt;div&gt;getTop5CoursesByStudentCount():&amp;nbsp;&lt;span style=&quot;background-color: transparent; color: light-dark(rgb(0, 0, 0), rgb(255, 255, 255));&quot;&gt;List&amp;lt;Course&amp;gt;&lt;/span&gt;&lt;/div&gt;" style="text;strokeColor=none;fillColor=none;align=left;verticalAlign=top;spacingLeft=4;spacingRight=4;overflow=hidden;rotatable=0;points=[[0,0.5],[1,0.5]];portConstraint=eastwest;whiteSpace=wrap;html=1;" parent="vNxBG4lUaGmJ6MviOZO6-51" vertex="1">
          <mxGeometry y="82" width="310" height="26" as="geometry" />
        </mxCell>
        <mxCell id="vNxBG4lUaGmJ6MviOZO6-55" value="" style="endArrow=block;dashed=1;endFill=0;endSize=12;html=1;rounded=0;" parent="1" source="vNxBG4lUaGmJ6MviOZO6-51" target="vNxBG4lUaGmJ6MviOZO6-47" edge="1">
          <mxGeometry width="160" relative="1" as="geometry">
            <mxPoint x="-700" y="520" as="sourcePoint" />
            <mxPoint x="-540" y="520" as="targetPoint" />
          </mxGeometry>
        </mxCell>
        <mxCell id="vNxBG4lUaGmJ6MviOZO6-56" value="" style="endArrow=open;endFill=1;endSize=12;html=1;rounded=0;" parent="1" source="vNxBG4lUaGmJ6MviOZO6-47" target="vNxBG4lUaGmJ6MviOZO6-42" edge="1">
          <mxGeometry width="160" relative="1" as="geometry">
            <mxPoint x="-350" y="650" as="sourcePoint" />
            <mxPoint x="-190" y="650" as="targetPoint" />
          </mxGeometry>
        </mxCell>
        <mxCell id="vNxBG4lUaGmJ6MviOZO6-57" value="" style="endArrow=open;endFill=1;endSize=12;html=1;rounded=0;" parent="1" source="vNxBG4lUaGmJ6MviOZO6-35" target="Q_YXP4lk02ADxKYNfTab-8" edge="1">
          <mxGeometry width="160" relative="1" as="geometry">
            <mxPoint x="-230" y="650" as="sourcePoint" />
            <mxPoint x="-70" y="650" as="targetPoint" />
          </mxGeometry>
        </mxCell>
        <mxCell id="vNxBG4lUaGmJ6MviOZO6-58" value="" style="endArrow=open;endFill=1;endSize=12;html=1;rounded=0;" parent="1" source="vNxBG4lUaGmJ6MviOZO6-35" target="MJI2ajQQupjb3d7geVpr-5" edge="1">
          <mxGeometry width="160" relative="1" as="geometry">
            <mxPoint x="110" y="300" as="sourcePoint" />
            <mxPoint x="270" y="300" as="targetPoint" />
          </mxGeometry>
        </mxCell>
      </root>
    </mxGraphModel>
  </diagram>
</mxfile>
